<svg xmlns="http://www.w3.org/2000/svg" xmlns:xlink="http://www.w3.org/1999/xlink" viewBox="0 0 1349.94 355.12"><defs><style>.cls-1{isolation:isolate;}.cls-2{fill:#ccc;}.cls-3{fill:url(#linear-gradient);}.cls-4{fill:#00bee3;}.cls-5{fill:url(#linear-gradient-2);}.cls-6{fill:url(#linear-gradient-3);}.cls-7{fill:url(#linear-gradient-4);}.cls-8{mix-blend-mode:multiply;}</style><linearGradient id="linear-gradient" x1="21.67" y1="198.71" x2="156.07" y2="64.31" gradientUnits="userSpaceOnUse"><stop offset="0" stop-color="#008bb7"/><stop offset="1" stop-color="#00bee3"/></linearGradient><linearGradient id="linear-gradient-2" x1="1066.76" y1="223.29" x2="1081.71" y2="208.34" gradientTransform="translate(34.41 -129.6) rotate(7.02)" xlink:href="#linear-gradient"/><linearGradient id="linear-gradient-3" x1="1116.43" y1="185.77" x2="1203.25" y2="98.95" xlink:href="#linear-gradient"/><linearGradient id="linear-gradient-4" x1="742.88" y1="223.23" x2="742.88" y2="60.79" gradientUnits="userSpaceOnUse"><stop offset="0" stop-color="#666"/><stop offset="0.52" stop-color="#b3b3b3"/><stop offset="1" stop-color="#666"/></linearGradient></defs><title>CONSULTIT_logo</title><g class="cls-1"><g id="Layer_2" data-name="Layer 2"><g id="Layer_1-2" data-name="Layer 1"><path class="cls-2" d="M106.36,315.43a14.73,14.73,0,0,1,3.72-5,14.9,14.9,0,0,1,5.27-2.91,20.18,20.18,0,0,1,6.08-.94,21.44,21.44,0,0,1,6.37.88,11.12,11.12,0,0,1,4,2,18.1,18.1,0,0,0-.81,2,22.21,22.21,0,0,0-.61,2.23h-.52a9,9,0,0,0-1.23-1.71,10.71,10.71,0,0,0-4.2-2.85,8.09,8.09,0,0,0-2.84-.48,11,11,0,0,0-5,1.07,9.25,9.25,0,0,0-3.43,2.94,12.74,12.74,0,0,0-1.94,4.43,23.49,23.49,0,0,0-.62,5.53q0,6.66,2.85,10.05t8.34,3.4a10.36,10.36,0,0,0,2.65-.36,14.92,14.92,0,0,0,2.65-1,14.48,14.48,0,0,0,2.43-1.45,12.37,12.37,0,0,0,2-1.81l.32.19a19.19,19.19,0,0,0-.39,3.17,17.87,17.87,0,0,1-4.82,2.65,16.63,16.63,0,0,1-6,1.1,20.24,20.24,0,0,1-5.59-.81A13.63,13.63,0,0,1,110,335a13.9,13.9,0,0,1-3.65-4.95,17.82,17.82,0,0,1-1.39-7.44A17,17,0,0,1,106.36,315.43Z"/><path class="cls-2" d="M139.82,315.2a13.84,13.84,0,0,1,3.65-5,14.4,14.4,0,0,1,5.07-2.78,18.41,18.41,0,0,1,11.22,0,14.49,14.49,0,0,1,5,2.78,13.87,13.87,0,0,1,3.65,5,20.77,20.77,0,0,1,0,14.94,13.86,13.86,0,0,1-3.65,5,13.32,13.32,0,0,1-5,2.68,20.66,20.66,0,0,1-11.22,0,13.26,13.26,0,0,1-5.07-2.68,13.82,13.82,0,0,1-3.65-5,20.73,20.73,0,0,1,0-14.94Zm4.78,12.71a14,14,0,0,0,1.65,4.49,8.85,8.85,0,0,0,3.1,3.14,10.43,10.43,0,0,0,9.57,0A8.83,8.83,0,0,0,162,332.4a14,14,0,0,0,1.65-4.49,28.46,28.46,0,0,0,0-10.47,14,14,0,0,0-1.65-4.49,8.81,8.81,0,0,0-3.11-3.14,10.43,10.43,0,0,0-9.57,0,8.82,8.82,0,0,0-3.1,3.14,14,14,0,0,0-1.65,4.49,28.46,28.46,0,0,0,0,10.47Z"/><path class="cls-2" d="M197.85,312.42a6.12,6.12,0,0,0-5.17-2.49q-4.53,0-6.63,2.78t-2.1,7.82V326q0,2.91.1,6.11t.42,5.79q-1.49-.13-2.91-.13c-.95,0-1.92,0-2.91.13q.32-2.59.42-5.79t.1-6.11v-6.72q0-2.91-.1-6.11t-.42-6a17.31,17.31,0,0,0,2.91.32,7.6,7.6,0,0,0,1.13-.1l1.45-.23q-.2,2.59-.19,5.17h.13a13.54,13.54,0,0,1,4.34-4.3,11.52,11.52,0,0,1,6-1.52,13.58,13.58,0,0,1,3.66.52,8.81,8.81,0,0,1,3.34,1.78,9.19,9.19,0,0,1,2.43,3.43,14,14,0,0,1,.94,5.53q0,2.78-.13,5.72t-.13,6.24V334q0,1,0,2c0,.67.05,1.3.1,1.91a27.46,27.46,0,0,0-2.75-.13,26.71,26.71,0,0,0-2.68.13q.13-3.36.29-6.92t.16-7.31v-3.94Q199.73,314.91,197.85,312.42Z"/><path class="cls-2" d="M216.89,333.34a9.72,9.72,0,0,0,1.62,1.45,9.11,9.11,0,0,0,2.13,1.13,7.43,7.43,0,0,0,4.92.07,6.43,6.43,0,0,0,2-1.1,5.11,5.11,0,0,0,1.39-1.81,5.88,5.88,0,0,0,.52-2.52,4,4,0,0,0-1.13-3.07,8.89,8.89,0,0,0-2.81-1.74,29.74,29.74,0,0,0-3.69-1.2,15.45,15.45,0,0,1-3.68-1.45,8.69,8.69,0,0,1-2.81-2.49,7.13,7.13,0,0,1-1.13-4.27,10.43,10.43,0,0,1,.71-3.91,8.61,8.61,0,0,1,2.07-3.07,9.72,9.72,0,0,1,3.36-2,13.18,13.18,0,0,1,4.59-.74,11.15,11.15,0,0,1,4,.65q1.65.65,3.14,1.16a14.14,14.14,0,0,0-1,2.39,17,17,0,0,0-.58,2.2h-.78a6.11,6.11,0,0,0-2-2.78A5.6,5.6,0,0,0,224.1,309a6.1,6.1,0,0,0-1.94.32,5.35,5.35,0,0,0-1.74,1,5.12,5.12,0,0,0-1.29,1.68,5.42,5.42,0,0,0-.52,2.46,4.31,4.31,0,0,0,1.13,3.2,7.88,7.88,0,0,0,2.81,1.78,29.57,29.57,0,0,0,3.68,1.13,16.3,16.3,0,0,1,3.68,1.36,8,8,0,0,1,2.81,2.43,7.13,7.13,0,0,1,1.13,4.27,9,9,0,0,1-.81,3.68,10.31,10.31,0,0,1-2.33,3.26,10.71,10.71,0,0,1-3.65,2.26,13.67,13.67,0,0,1-4.85.81,18.07,18.07,0,0,1-5-.58,15.48,15.48,0,0,1-3.36-1.36,16.94,16.94,0,0,0,.81-2.29,9.16,9.16,0,0,0,.42-2.43h.78A6.87,6.87,0,0,0,216.89,333.34Z"/><path class="cls-2" d="M243.08,322.31q.09-2.42.1-4.82t0-4.91q0-2.65-.1-5.37a14.25,14.25,0,0,0,2.72.32,14,14,0,0,0,2.65-.32q-.32,3.88-.49,8.5t-.16,9.47a17.5,17.5,0,0,0,.58,5.14,7.25,7.25,0,0,0,1.42,2.68,7.14,7.14,0,0,0,2.3,1.71,7.37,7.37,0,0,0,3.26.68,8,8,0,0,0,4.53-1.2,7.34,7.34,0,0,0,2.65-2.94c.3-.73.54-1.36.71-1.88a11.07,11.07,0,0,0,.42-2.07,33.7,33.7,0,0,0,.2-3.49q0-2.2,0-6v-5.43q0-1.42,0-2.72t-.1-2.46l1.36.23a9.59,9.59,0,0,0,2.72,0c.43-.07.86-.14,1.29-.23q-.32,5-.39,9.73t-.07,9.92q0,2.91.07,5.69t.19,5.37a24.39,24.39,0,0,0-5,0c0-.39.07-.8.1-1.23s0-.88,0-1.36v-2.78h-.13a11,11,0,0,1-4.33,4.56,11.78,11.78,0,0,1-5.75,1.45q-5,0-7.92-2.68T243,328.16Q243,324.74,243.08,322.31Z"/><path class="cls-2" d="M282.2,303q0-2.59-.1-5.11c0-1.68-.1-3.29-.16-4.82s-.14-2.84-.23-3.91a13.23,13.23,0,0,0,5.82,0q-.13,1.62-.22,3.91t-.16,4.82q-.07,2.52-.1,5.11t0,4.78v11.7q0,2.2,0,4.78t.1,5.11q.06,2.52.16,4.78t.22,3.75q-1.49-.13-2.91-.13t-2.91.13q.13-1.49.23-3.75c.07-1.51.12-3.11.16-4.78s.07-3.38.1-5.11,0-3.32,0-4.78V307.8Q282.23,305.6,282.2,303Z"/><path class="cls-2" d="M306,298.55q-.19,2.45-.29,4.82t-.23,4.75l2.65,0c1.3,0,2.69-.07,4.2-.16a2.52,2.52,0,0,0-.07.71V310a2.16,2.16,0,0,0,.07.64q-.84-.06-1.75-.1c-.61,0-1.25,0-1.94,0H305.5q-.06.26-.16,2.07c-.06,1.21-.12,2.64-.16,4.3s-.08,3.4-.1,5.2,0,3.43,0,4.85q0,1.81.1,3.55a10.71,10.71,0,0,0,.61,3.14,5.08,5.08,0,0,0,1.55,2.23,4.59,4.59,0,0,0,3,.84,10.13,10.13,0,0,0,1.39-.13,11.37,11.37,0,0,0,1.52-.32v1.55c-.73.13-1.54.29-2.42.49a12,12,0,0,1-2.55.29q-4.07,0-6-2a8.14,8.14,0,0,1-1.94-5.88q0-1.75.07-3.78t.16-4.46q.09-2.42.16-5.37t.06-6.56h-2.07l-1.1,0-1.23.1c0-.26.07-.51.1-.74s0-.48,0-.74,0-.43,0-.65-.05-.43-.1-.64q2.91.19,4.27.19c0-.86-.08-1.94-.1-3.23s-.08-2.63-.16-4l5.37-2.26Z"/><path class="cls-2" d="M318.47,315.2a13.84,13.84,0,0,1,3.65-5,14.4,14.4,0,0,1,5.07-2.78,18.41,18.41,0,0,1,11.22,0,14.49,14.49,0,0,1,5,2.78,13.87,13.87,0,0,1,3.65,5,20.77,20.77,0,0,1,0,14.94,13.86,13.86,0,0,1-3.65,5,13.32,13.32,0,0,1-5,2.68,20.66,20.66,0,0,1-11.22,0,13.26,13.26,0,0,1-5.07-2.68,13.82,13.82,0,0,1-3.65-5,20.73,20.73,0,0,1,0-14.94Zm4.78,12.71a14,14,0,0,0,1.65,4.49,8.85,8.85,0,0,0,3.1,3.14,10.43,10.43,0,0,0,9.57,0,8.83,8.83,0,0,0,3.11-3.14,14,14,0,0,0,1.65-4.49,28.46,28.46,0,0,0,0-10.47,14,14,0,0,0-1.65-4.49,8.81,8.81,0,0,0-3.11-3.14,10.43,10.43,0,0,0-9.57,0,8.82,8.82,0,0,0-3.1,3.14,14,14,0,0,0-1.65,4.49,28.46,28.46,0,0,0,0,10.47Z"/><path class="cls-2" d="M370.84,311.81a5.81,5.81,0,0,0-1.91-.32,5.47,5.47,0,0,0-2.78.71,6.47,6.47,0,0,0-2.07,1.91,9.09,9.09,0,0,0-1.29,2.84,13.28,13.28,0,0,0-.45,3.52v7.11q0,4.33,0,6.63a31.27,31.27,0,0,0,.23,3.72,25.47,25.47,0,0,0-2.59-.13,26.68,26.68,0,0,0-2.71.13q.19-2.2.22-6t0-9.28V320.6q0-2.52,0-5.82t-.22-7.57l1.36.23a9.46,9.46,0,0,0,1.36.1,8.61,8.61,0,0,0,1.23-.1l1.36-.23q-.26,2.33-.29,3.68c0,.91,0,1.77,0,2.59l.13.07q3.81-7,8.53-7a6.76,6.76,0,0,1,1,.07A5.2,5.2,0,0,1,373,307a7.25,7.25,0,0,0-.39,2.36q-.06,1.59-.07,2.88l-.45.32A2.9,2.9,0,0,0,370.84,311.81Z"/><path class="cls-2" d="M382.19,293.64a3.28,3.28,0,1,1-1,2.33A3.17,3.17,0,0,1,382.19,293.64ZM382,313.2q-.1-3.2-.42-6a13.23,13.23,0,0,0,5.82,0q-.32,2.78-.42,6t-.1,6.11V326q0,2.91.1,6.11t.42,5.79q-1.49-.13-2.91-.13t-2.91.13q.32-2.59.42-5.79t.1-6.11v-6.72Q382.12,316.4,382,313.2Z"/><path class="cls-2" d="M406,307.35a16.57,16.57,0,0,1,5-.78,12.92,12.92,0,0,1,4.27.68,9.51,9.51,0,0,1,3.32,1.94,9,9,0,0,1,2.16,3,9.58,9.58,0,0,1,.79,3.91q0,3.69-.13,7.34t-.13,7.73c0,.52,0,1.07,0,1.65a4.85,4.85,0,0,0,.29,1.55,3,3,0,0,0,.74,1.13,2.07,2.07,0,0,0,1.45.45c.22,0,.44,0,.68,0a1.59,1.59,0,0,0,.68-.22v1.42a7.45,7.45,0,0,1-1.78.52,13.09,13.09,0,0,1-2.36.2,4.46,4.46,0,0,1-3.21-1.07,4.36,4.36,0,0,1-1.31-2.75,17.39,17.39,0,0,1-4.58,3.43,12.57,12.57,0,0,1-5.54,1.1,11.19,11.19,0,0,1-3.16-.45,7.23,7.23,0,0,1-2.74-1.49,8.11,8.11,0,0,1-1.93-2.49,7.26,7.26,0,0,1-.74-3.33,7.6,7.6,0,0,1,2.41-6,13.13,13.13,0,0,1,6.67-2.84q3.48-.58,5.45-1a13.73,13.73,0,0,0,2.9-.87,2,2,0,0,0,1.13-1.07,5.33,5.33,0,0,0,.19-1.58,12.27,12.27,0,0,0-.39-3.11,7.2,7.2,0,0,0-1.23-2.59,6.2,6.2,0,0,0-2.2-1.78,7.33,7.33,0,0,0-3.3-.68,10.25,10.25,0,0,0-4.82,1.16,7.64,7.64,0,0,0-3.33,3.23h-.71v-3.36A18.39,18.39,0,0,1,406,307.35ZM414,322.47q-1.45.26-2.93.55a27.59,27.59,0,0,0-2.93.74,9.46,9.46,0,0,0-2.57,1.23,6,6,0,0,0-1.8,1.94,6.91,6.91,0,0,0,1.06,7.56,5.66,5.66,0,0,0,3.86,1.55,7.88,7.88,0,0,0,4.47-1.36,10.21,10.21,0,0,0,3.12-3.17l.26-9.7A16.23,16.23,0,0,1,414,322.47Z"/><path class="cls-2" d="M454.7,311.09q3.78-4.52,11-4.53a15,15,0,0,1,5.92,1.07,12.35,12.35,0,0,1,4.17,2.84,11.27,11.27,0,0,1,2.49,4.17,15.83,15.83,0,0,1,.81,5.11c0,.43,0,.85,0,1.26s-.05.83-.1,1.26l-6.92-.13q-3.43-.06-6.92-.07-2.14,0-4.24.07l-4.23.13a5.41,5.41,0,0,0-.07,1v.84a14.6,14.6,0,0,0,.74,4.72,10.69,10.69,0,0,0,2.16,3.78,10.37,10.37,0,0,0,3.49,2.52,11.48,11.48,0,0,0,4.78.94,10.39,10.39,0,0,0,2.65-.36,15,15,0,0,0,2.65-1,14.46,14.46,0,0,0,2.42-1.45,12.4,12.4,0,0,0,2-1.81l.32.19-.39,3.17a17.89,17.89,0,0,1-4.82,2.65,16.6,16.6,0,0,1-6,1.1,18.21,18.21,0,0,1-6.37-1.07,14.1,14.1,0,0,1-5-3.11,13.9,13.9,0,0,1-3.23-4.82,15.77,15.77,0,0,1-1.13-6Q450.91,315.62,454.7,311.09Zm7.11-1.36a9.44,9.44,0,0,0-2.72,2.75,13.11,13.11,0,0,0-1.62,3.62,19.32,19.32,0,0,0-.68,3.72L461,320q2.16.06,4.24.07c1.42,0,2.87,0,4.33-.07l4.27-.13a25,25,0,0,0-.29-3.69,11.48,11.48,0,0,0-1.16-3.62,7.71,7.71,0,0,0-2.42-2.78,6.9,6.9,0,0,0-4.07-1.1A7.12,7.12,0,0,0,461.81,309.74Z"/><path class="cls-2" d="M487.54,313.2q-.1-3.2-.42-6a17.37,17.37,0,0,0,2.91.32,7.56,7.56,0,0,0,1.13-.1l1.45-.23q-.19,2.59-.19,5.17h.13q3.41-5.82,9.6-5.82a10.47,10.47,0,0,1,3.16.49,10.9,10.9,0,0,1,2.8,1.33,8.86,8.86,0,0,1,2.16,2A6.86,6.86,0,0,1,511.5,313h.13a11.41,11.41,0,0,1,4.24-4.75,11.62,11.62,0,0,1,6.19-1.65,13,13,0,0,1,4,.58,8,8,0,0,1,5.22,5,13,13,0,0,1,.74,4.65q0,1.1-.07,2.39c0,.86-.09,1.86-.13,3s-.09,2.44-.13,3.88-.06,3.11-.06,5c0,1.16,0,2.29,0,3.36s.07,2.24.16,3.49a7.78,7.78,0,0,0-1.42-.13H527.6a7.78,7.78,0,0,0-1.42.13q.2-1.62.42-6.53t.23-13.71a12.44,12.44,0,0,0-.36-3,6.8,6.8,0,0,0-1.14-2.46,5.49,5.49,0,0,0-2.08-1.65,7.57,7.57,0,0,0-3.24-.61,8,8,0,0,0-4,.9,7.88,7.88,0,0,0-2.53,2.13,6.86,6.86,0,0,0-.81,1.42,8.63,8.63,0,0,0-.45,2.16q-.16,1.46-.23,4.07t-.06,7.21q0,2.78.1,5.08t.22,5c-1-.09-1.91-.13-2.81-.13s-1.83,0-2.81.13q.29-3.56.4-7.24t.12-7.24q0-3,0-4.75A26,26,0,0,0,507,316a8.34,8.34,0,0,0-.35-1.65,12.87,12.87,0,0,0-.61-1.42,5.88,5.88,0,0,0-2.22-2.1,6.16,6.16,0,0,0-3.12-.87q-4.25,0-6.24,2.78t-2,7.82V326q0,2.91.1,6.11t.42,5.79q-1.49-.13-2.91-.13t-2.91.13q.32-2.59.42-5.79t.1-6.11v-6.72Q487.64,316.4,487.54,313.2Z"/><path class="cls-2" d="M568.46,298.55q-.19,2.45-.29,4.82t-.23,4.75l2.65,0c1.3,0,2.69-.07,4.2-.16a2.52,2.52,0,0,0-.07.71V310a2.16,2.16,0,0,0,.07.64q-.84-.06-1.75-.1c-.61,0-1.25,0-1.94,0h-3.17q-.06.26-.16,2.07c-.06,1.21-.12,2.64-.16,4.3s-.08,3.4-.1,5.2,0,3.43,0,4.85q0,1.81.1,3.55a10.71,10.71,0,0,0,.61,3.14,5.08,5.08,0,0,0,1.55,2.23,4.59,4.59,0,0,0,3,.84,10.13,10.13,0,0,0,1.39-.13,11.37,11.37,0,0,0,1.52-.32v1.55c-.73.13-1.54.29-2.42.49a12,12,0,0,1-2.55.29q-4.07,0-6-2a8.14,8.14,0,0,1-1.94-5.88q0-1.75.07-3.78t.16-4.46q.09-2.42.16-5.37t.06-6.56h-2.07l-1.1,0-1.23.1c0-.26.07-.51.1-.74s0-.48,0-.74,0-.43,0-.65-.05-.43-.1-.64q2.91.19,4.27.19c0-.86-.08-1.94-.1-3.23s-.08-2.63-.16-4l5.37-2.26Z"/><path class="cls-2" d="M583.3,311.09q3.78-4.52,11-4.53a15,15,0,0,1,5.92,1.07,12.35,12.35,0,0,1,4.17,2.84,11.27,11.27,0,0,1,2.49,4.17,15.83,15.83,0,0,1,.81,5.11c0,.43,0,.85,0,1.26s-.05.83-.1,1.26l-6.92-.13q-3.43-.06-6.92-.07-2.14,0-4.24.07l-4.23.13a5.41,5.41,0,0,0-.07,1v.84a14.6,14.6,0,0,0,.74,4.72,10.69,10.69,0,0,0,2.16,3.78,10.37,10.37,0,0,0,3.49,2.52,11.48,11.48,0,0,0,4.78.94,10.39,10.39,0,0,0,2.65-.36,15,15,0,0,0,2.65-1,14.46,14.46,0,0,0,2.42-1.45,12.4,12.4,0,0,0,2-1.81l.32.19-.39,3.17a17.89,17.89,0,0,1-4.82,2.65,16.6,16.6,0,0,1-6,1.1,18.21,18.21,0,0,1-6.37-1.07,14.1,14.1,0,0,1-5-3.11,13.9,13.9,0,0,1-3.23-4.82,15.77,15.77,0,0,1-1.13-6Q579.51,315.62,583.3,311.09Zm7.11-1.36a9.44,9.44,0,0,0-2.72,2.75,13.11,13.11,0,0,0-1.62,3.62,19.32,19.32,0,0,0-.68,3.72l4.17.13q2.16.06,4.24.07c1.42,0,2.87,0,4.33-.07l4.27-.13a25,25,0,0,0-.29-3.69,11.48,11.48,0,0,0-1.16-3.62,7.71,7.71,0,0,0-2.42-2.78,6.9,6.9,0,0,0-4.07-1.1A7.12,7.12,0,0,0,590.41,309.74Z"/><path class="cls-2" d="M615.33,315.43a14.73,14.73,0,0,1,3.72-5,14.9,14.9,0,0,1,5.27-2.91,20.18,20.18,0,0,1,6.08-.94,21.44,21.44,0,0,1,6.37.88,11.12,11.12,0,0,1,4,2,18.1,18.1,0,0,0-.81,2,22.21,22.21,0,0,0-.61,2.23h-.52a9,9,0,0,0-1.23-1.71,10.71,10.71,0,0,0-4.2-2.85,8.09,8.09,0,0,0-2.84-.48,11,11,0,0,0-5,1.07,9.25,9.25,0,0,0-3.43,2.94,12.74,12.74,0,0,0-1.94,4.43,23.49,23.49,0,0,0-.62,5.53q0,6.66,2.85,10.05t8.34,3.4a10.36,10.36,0,0,0,2.65-.36,14.92,14.92,0,0,0,2.65-1,14.48,14.48,0,0,0,2.43-1.45,12.37,12.37,0,0,0,2-1.81l.32.19a19.2,19.2,0,0,0-.39,3.17,17.87,17.87,0,0,1-4.82,2.65,16.63,16.63,0,0,1-6,1.1,20.24,20.24,0,0,1-5.59-.81A13.63,13.63,0,0,1,619,335a13.9,13.9,0,0,1-3.65-4.95,17.82,17.82,0,0,1-1.39-7.44A17,17,0,0,1,615.33,315.43Z"/><path class="cls-2" d="M669.25,312.42a6.12,6.12,0,0,0-5.17-2.49q-4.53,0-6.63,2.78t-2.1,7.82V326q0,2.91.1,6.11t.42,5.79q-1.49-.13-2.91-.13c-.95,0-1.92,0-2.91.13q.32-2.59.42-5.79t.1-6.11v-6.72q0-2.91-.1-6.11t-.42-6a17.31,17.31,0,0,0,2.91.32,7.6,7.6,0,0,0,1.13-.1l1.45-.23q-.2,2.59-.19,5.17h.13a13.54,13.54,0,0,1,4.34-4.3,11.52,11.52,0,0,1,6-1.52,13.58,13.58,0,0,1,3.66.52,8.81,8.81,0,0,1,3.34,1.78,9.19,9.19,0,0,1,2.43,3.43,14,14,0,0,1,.94,5.53q0,2.78-.13,5.72t-.13,6.24V334q0,1,0,2c0,.67.05,1.3.1,1.91a27.46,27.46,0,0,0-2.75-.13,26.71,26.71,0,0,0-2.68.13q.13-3.36.29-6.92t.16-7.31v-3.94Q671.13,314.91,669.25,312.42Z"/><path class="cls-2" d="M686.36,315.2a13.84,13.84,0,0,1,3.65-5,14.4,14.4,0,0,1,5.07-2.78,18.41,18.41,0,0,1,11.22,0,14.49,14.49,0,0,1,5,2.78,13.87,13.87,0,0,1,3.65,5,20.77,20.77,0,0,1,0,14.94,13.86,13.86,0,0,1-3.65,5,13.32,13.32,0,0,1-5,2.68,20.66,20.66,0,0,1-11.22,0,13.26,13.26,0,0,1-5.07-2.68,13.82,13.82,0,0,1-3.65-5,20.73,20.73,0,0,1,0-14.94Zm4.78,12.71a14,14,0,0,0,1.65,4.49,8.85,8.85,0,0,0,3.1,3.14,10.43,10.43,0,0,0,9.57,0,8.83,8.83,0,0,0,3.11-3.14,14,14,0,0,0,1.65-4.49,28.46,28.46,0,0,0,0-10.47,14,14,0,0,0-1.65-4.49,8.81,8.81,0,0,0-3.11-3.14,10.43,10.43,0,0,0-9.57,0,8.82,8.82,0,0,0-3.1,3.14,14,14,0,0,0-1.65,4.49,28.46,28.46,0,0,0,0,10.47Z"/><path class="cls-2" d="M726.83,303q0-2.59-.1-5.11c0-1.68-.1-3.29-.16-4.82s-.14-2.84-.23-3.91a13.23,13.23,0,0,0,5.82,0q-.13,1.62-.22,3.91t-.16,4.82q-.07,2.52-.1,5.11t0,4.78v11.7q0,2.2,0,4.78t.1,5.11q.06,2.52.16,4.78t.22,3.75q-1.49-.13-2.91-.13t-2.91.13q.13-1.49.23-3.75c.07-1.51.12-3.11.16-4.78s.07-3.38.1-5.11,0-3.32,0-4.78V307.8Q726.86,305.6,726.83,303Z"/><path class="cls-2" d="M743.51,315.2a13.84,13.84,0,0,1,3.65-5,14.4,14.4,0,0,1,5.07-2.78,18.41,18.41,0,0,1,11.22,0,14.49,14.49,0,0,1,5,2.78,13.87,13.87,0,0,1,3.65,5,20.77,20.77,0,0,1,0,14.94,13.86,13.86,0,0,1-3.65,5,13.32,13.32,0,0,1-5,2.68,20.66,20.66,0,0,1-11.22,0,13.26,13.26,0,0,1-5.07-2.68,13.82,13.82,0,0,1-3.65-5,20.73,20.73,0,0,1,0-14.94Zm4.78,12.71a14,14,0,0,0,1.65,4.49,8.85,8.85,0,0,0,3.1,3.14,10.43,10.43,0,0,0,9.57,0,8.83,8.83,0,0,0,3.11-3.14,14,14,0,0,0,1.65-4.49,28.46,28.46,0,0,0,0-10.47,14,14,0,0,0-1.65-4.49,8.81,8.81,0,0,0-3.11-3.14,10.43,10.43,0,0,0-9.57,0,8.82,8.82,0,0,0-3.1,3.14,14,14,0,0,0-1.65,4.49,28.46,28.46,0,0,0,0,10.47Z"/><path class="cls-2" d="M781.63,312.42a9,9,0,0,1,2.68-3.26,12,12,0,0,1,3.94-1.94,17.06,17.06,0,0,1,4.75-.65q1.23,0,2.36.07l2.88.19q1.49.13,2.65.2t1.88.06a29.82,29.82,0,0,0,5.24-.32,6.1,6.1,0,0,0-.1.68c0,.24,0,.46,0,.68s0,.44,0,.68a6.05,6.05,0,0,0,.1.68q-1.88-.13-3.65-.29t-3.52-.23l-.13.13a8.07,8.07,0,0,1,3.23,3.4,10,10,0,0,1,1.23,4.75,9.39,9.39,0,0,1-3.27,7.6q-3.26,2.75-8.76,2.75c-.61,0-1.2,0-1.78-.06s-1.17-.07-1.78-.07a3.31,3.31,0,0,0-2.16.84,2.66,2.66,0,0,0-1,2.13,3.27,3.27,0,0,0,.81,2.45,4.56,4.56,0,0,0,3,.84c1.2,0,2.39.08,3.55.1l3.56.1a18.79,18.79,0,0,1,5.08.71,9.93,9.93,0,0,1,3.43,1.74,6.76,6.76,0,0,1,1.94,2.52,7.74,7.74,0,0,1,.62,3.1,13,13,0,0,1-.88,4.59,11.92,11.92,0,0,1-2.71,4.2,14.43,14.43,0,0,1-4.75,3.1,17.92,17.92,0,0,1-7,1.23q-6.27,0-9.89-2.49a7.86,7.86,0,0,1-3.62-6.82,7.73,7.73,0,0,1,.61-3.1,9.39,9.39,0,0,1,1.59-2.52,7.65,7.65,0,0,1,2.2-1.74,11.22,11.22,0,0,1,2.52-1v-.13a5.67,5.67,0,0,1-3-1.94,5.2,5.2,0,0,1-1-3.23,4.68,4.68,0,0,1,.42-2,6.37,6.37,0,0,1,1.07-1.62,5.52,5.52,0,0,1,1.49-1.16,5.31,5.31,0,0,1,1.62-.58v-.13a10.86,10.86,0,0,1-4.65-3.65,9.93,9.93,0,0,1-1.68-5.92A10.55,10.55,0,0,1,781.63,312.42Zm19.72,26.93q-2.26-1.55-7.5-1.55a14.7,14.7,0,0,0-7.5,1.59q-2.65,1.58-2.65,5.72a8.63,8.63,0,0,0,.74,3.75,6.84,6.84,0,0,0,2,2.52,8.26,8.26,0,0,0,3,1.42,14.91,14.91,0,0,0,3.75.45,14.31,14.31,0,0,0,3.81-.52,10.59,10.59,0,0,0,3.33-1.55,8.11,8.11,0,0,0,2.36-2.62,7.52,7.52,0,0,0,.91-3.78Q803.61,340.9,801.35,339.35Zm-3.17-28.77a7.31,7.31,0,0,0-10.54.23,9.61,9.61,0,0,0-1.94,6.3,10.44,10.44,0,0,0,1.78,6.43q1.78,2.36,5.53,2.36a6.44,6.44,0,0,0,3.2-.74,6.54,6.54,0,0,0,2.2-2,9,9,0,0,0,1.29-2.91,14,14,0,0,0,.42-3.46Q800.12,312.71,798.18,310.58Z"/><path class="cls-2" d="M818,293.64a3.28,3.28,0,1,1-1,2.33A3.17,3.17,0,0,1,818,293.64Zm-.16,19.56q-.1-3.2-.42-6a13.23,13.23,0,0,0,5.82,0q-.32,2.78-.42,6t-.1,6.11V326q0,2.91.1,6.11t.42,5.79q-1.49-.13-2.91-.13t-2.91.13q.32-2.59.42-5.79T818,326v-6.72Q818,316.4,817.87,313.2Z"/><path class="cls-2" d="M841.82,307.35a16.57,16.57,0,0,1,5-.78,12.92,12.92,0,0,1,4.27.68,9.51,9.51,0,0,1,3.32,1.94,9,9,0,0,1,2.16,3,9.58,9.58,0,0,1,.79,3.91q0,3.69-.13,7.34t-.13,7.73c0,.52,0,1.07,0,1.65a4.85,4.85,0,0,0,.29,1.55,3,3,0,0,0,.74,1.13,2.07,2.07,0,0,0,1.45.45c.22,0,.44,0,.68,0a1.59,1.59,0,0,0,.68-.22v1.42a7.45,7.45,0,0,1-1.78.52,13.09,13.09,0,0,1-2.36.2,4.46,4.46,0,0,1-3.21-1.07,4.36,4.36,0,0,1-1.31-2.75,17.39,17.39,0,0,1-4.58,3.43,12.57,12.57,0,0,1-5.54,1.1,11.19,11.19,0,0,1-3.16-.45,7.23,7.23,0,0,1-2.74-1.49,8.11,8.11,0,0,1-1.93-2.49,7.26,7.26,0,0,1-.74-3.33,7.6,7.6,0,0,1,2.41-6,13.13,13.13,0,0,1,6.67-2.84q3.48-.58,5.45-1a13.73,13.73,0,0,0,2.9-.87,2,2,0,0,0,1.13-1.07,5.33,5.33,0,0,0,.19-1.58,12.27,12.27,0,0,0-.39-3.11,7.2,7.2,0,0,0-1.23-2.59,6.2,6.2,0,0,0-2.2-1.78,7.33,7.33,0,0,0-3.3-.68,10.25,10.25,0,0,0-4.82,1.16,7.64,7.64,0,0,0-3.33,3.23h-.71v-3.36A18.39,18.39,0,0,1,841.82,307.35Zm8.06,15.13q-1.45.26-2.93.55a27.59,27.59,0,0,0-2.93.74,9.46,9.46,0,0,0-2.57,1.23,6,6,0,0,0-1.8,1.94,6.91,6.91,0,0,0,1.06,7.56,5.66,5.66,0,0,0,3.86,1.55,7.88,7.88,0,0,0,4.47-1.36,10.21,10.21,0,0,0,3.12-3.17l.26-9.7A16.23,16.23,0,0,1,849.88,322.47Z"/><path class="cls-2" d="M911.26,331.78a16,16,0,0,1-1.39,2.23,11.31,11.31,0,0,1-2.2,2.23,11.17,11.17,0,0,1-3.13,1.68,12.54,12.54,0,0,1-4.2.64,14.28,14.28,0,0,1-4.82-.84,10.83,10.83,0,0,1-4.2-2.75,14.07,14.07,0,0,1-3-4.91,20.47,20.47,0,0,1-1.13-7.21,19.11,19.11,0,0,1,1.23-7.18,15.57,15.57,0,0,1,3.2-5.07,12.86,12.86,0,0,1,4.46-3,13.33,13.33,0,0,1,5-1q7.18,0,10,6.47h.13V306.7q0-2.45,0-4.95T911.1,297q0-2.26-.06-4.27t-.1-3.55l1.49.22a10.39,10.39,0,0,0,1.42.1,9.72,9.72,0,0,0,1.39-.1l1.52-.22q-.2,2.07-.32,6t-.23,8.63q-.1,4.72-.16,9.7T916,322.6q0,4.46.06,8t.13,7.31a24.86,24.86,0,0,0-2.52-.13,24.14,24.14,0,0,0-2.45.13l.19-6.14Zm-17.55-2.13a12,12,0,0,0,2.07,4,6.67,6.67,0,0,0,2.88,2.1,9.35,9.35,0,0,0,3.17.58,7.41,7.41,0,0,0,4.33-1.26,10.35,10.35,0,0,0,3-3.3,15.42,15.42,0,0,0,1.74-4.62,24.83,24.83,0,0,0,.55-5.17q0-6.21-2.39-9.47a8.2,8.2,0,0,0-7-3.26,7.47,7.47,0,0,0-4,1.07,8.55,8.55,0,0,0-2.84,3,14.74,14.74,0,0,0-1.68,4.46,25.92,25.92,0,0,0-.55,5.46A21.31,21.31,0,0,0,893.71,329.65Z"/><path class="cls-2" d="M928.11,311.09q3.78-4.52,11-4.53a15,15,0,0,1,5.92,1.07,12.35,12.35,0,0,1,4.17,2.84,11.27,11.27,0,0,1,2.49,4.17,15.83,15.83,0,0,1,.81,5.11c0,.43,0,.85,0,1.26s-.05.83-.1,1.26l-6.92-.13q-3.43-.06-6.92-.07-2.14,0-4.24.07l-4.23.13a5.41,5.41,0,0,0-.07,1v.84a14.6,14.6,0,0,0,.74,4.72,10.69,10.69,0,0,0,2.16,3.78,10.37,10.37,0,0,0,3.49,2.52,11.48,11.48,0,0,0,4.78.94,10.39,10.39,0,0,0,2.65-.36,15,15,0,0,0,2.65-1,14.46,14.46,0,0,0,2.42-1.45,12.4,12.4,0,0,0,2-1.81l.32.19-.39,3.17a17.89,17.89,0,0,1-4.82,2.65,16.6,16.6,0,0,1-6,1.1,18.21,18.21,0,0,1-6.37-1.07,14.1,14.1,0,0,1-5-3.11,13.9,13.9,0,0,1-3.23-4.82,15.77,15.77,0,0,1-1.13-6Q924.32,315.62,928.11,311.09Zm7.11-1.36a9.44,9.44,0,0,0-2.72,2.75,13.11,13.11,0,0,0-1.62,3.62,19.32,19.32,0,0,0-.68,3.72l4.17.13q2.16.06,4.24.07c1.42,0,2.87,0,4.33-.07l4.27-.13a25,25,0,0,0-.29-3.69,11.48,11.48,0,0,0-1.16-3.62,7.71,7.71,0,0,0-2.42-2.78,6.9,6.9,0,0,0-4.07-1.1A7.12,7.12,0,0,0,935.22,309.74Z"/><path class="cls-2" d="M982.25,293.64a3.28,3.28,0,1,1-1,2.33A3.17,3.17,0,0,1,982.25,293.64Zm-.16,19.56q-.1-3.2-.42-6a13.23,13.23,0,0,0,5.82,0q-.32,2.78-.42,6t-.1,6.11V326q0,2.91.1,6.11t.42,5.79q-1.49-.13-2.91-.13t-2.91.13q.32-2.59.42-5.79t.1-6.11v-6.72Q982.19,316.4,982.09,313.2Z"/><path class="cls-2" d="M1019.3,312.42a6.12,6.12,0,0,0-5.17-2.49q-4.53,0-6.63,2.78t-2.1,7.82V326q0,2.91.1,6.11t.42,5.79q-1.49-.13-2.91-.13c-.95,0-1.92,0-2.91.13q.32-2.59.42-5.79t.1-6.11v-6.72q0-2.91-.1-6.11t-.42-6a17.31,17.31,0,0,0,2.91.32,7.6,7.6,0,0,0,1.13-.1l1.45-.23q-.2,2.59-.19,5.17h.13a13.54,13.54,0,0,1,4.34-4.3,11.52,11.52,0,0,1,6-1.52,13.58,13.58,0,0,1,3.66.52,8.81,8.81,0,0,1,3.34,1.78,9.19,9.19,0,0,1,2.43,3.43,14,14,0,0,1,.94,5.53q0,2.78-.13,5.72t-.13,6.24V334q0,1,0,2c0,.67.05,1.3.1,1.91a27.46,27.46,0,0,0-2.75-.13,26.71,26.71,0,0,0-2.68.13q.13-3.36.29-6.92t.16-7.31v-3.94Q1021.18,314.91,1019.3,312.42Z"/><path class="cls-2" d="M1047.81,293.57a5,5,0,0,0-2.42.55,5,5,0,0,0-1.65,1.42,5.69,5.69,0,0,0-.94,2,10,10,0,0,0-.29,2.46,33.11,33.11,0,0,0,.24,3.36q.25,2.2.6,4.2,1.68,0,3.33,0c1.1,0,2.21,0,3.33,0a6.43,6.43,0,0,0-.1.64,6.18,6.18,0,0,0,0,.65,6.09,6.09,0,0,0,0,.64,6.25,6.25,0,0,0,.1.65l-3.33-.13q-1.65-.06-3.33-.07,0,7,0,14t.22,14a8,8,0,0,0-1.44-.13h-1.38c-.91,0-1.88,0-2.88.13q.45-7,.52-13.94t.06-14.06q-1.16,0-2.33.07l-2.33.13c0-.22.07-.43.1-.65s0-.43,0-.64,0-.43,0-.65-.05-.43-.1-.64q1.16,0,2.36,0t2.3,0a23.57,23.57,0,0,1,.39-4.07,28,28,0,0,1,1.13-4.33,27.23,27.23,0,0,1,1.78-4,13.82,13.82,0,0,1,2.33-3.2,11.51,11.51,0,0,1,2.94-2.07,8,8,0,0,1,3.65-.9,4.05,4.05,0,0,1,1.3.19q-.07,1.3-.16,2.59t-.1,2.59l-.39.2A6.56,6.56,0,0,0,1047.81,293.57Z"/><path class="cls-2" d="M1056,315.2a13.84,13.84,0,0,1,3.65-5,14.4,14.4,0,0,1,5.07-2.78,18.41,18.41,0,0,1,11.22,0,14.49,14.49,0,0,1,5,2.78,13.87,13.87,0,0,1,3.65,5,20.77,20.77,0,0,1,0,14.94,13.86,13.86,0,0,1-3.65,5,13.32,13.32,0,0,1-5,2.68,20.66,20.66,0,0,1-11.22,0,13.26,13.26,0,0,1-5.07-2.68,13.82,13.82,0,0,1-3.65-5,20.73,20.73,0,0,1,0-14.94Zm4.78,12.71a14,14,0,0,0,1.65,4.49,8.85,8.85,0,0,0,3.1,3.14,10.43,10.43,0,0,0,9.57,0,8.83,8.83,0,0,0,3.11-3.14,14,14,0,0,0,1.65-4.49,28.46,28.46,0,0,0,0-10.47,14,14,0,0,0-1.65-4.49,8.81,8.81,0,0,0-3.11-3.14,10.43,10.43,0,0,0-9.57,0,8.82,8.82,0,0,0-3.1,3.14,14,14,0,0,0-1.65,4.49,28.46,28.46,0,0,0,0,10.47Z"/><path class="cls-2" d="M1108.36,311.81a5.81,5.81,0,0,0-1.91-.32,5.47,5.47,0,0,0-2.78.71,6.47,6.47,0,0,0-2.07,1.91,9.09,9.09,0,0,0-1.29,2.84,13.28,13.28,0,0,0-.45,3.52v7.11q0,4.33,0,6.63a31.27,31.27,0,0,0,.23,3.72,25.47,25.47,0,0,0-2.59-.13,26.68,26.68,0,0,0-2.71.13q.19-2.2.22-6t0-9.28V320.6q0-2.52,0-5.82t-.22-7.57l1.36.23a9.46,9.46,0,0,0,1.36.1,8.61,8.61,0,0,0,1.23-.1l1.36-.23q-.26,2.33-.29,3.68c0,.91,0,1.77,0,2.59l.13.07q3.81-7,8.53-7a6.76,6.76,0,0,1,1,.07,5.2,5.2,0,0,1,1.07.32,7.25,7.25,0,0,0-.39,2.36q-.06,1.59-.07,2.88l-.45.32A2.9,2.9,0,0,0,1108.36,311.81Z"/><path class="cls-2" d="M1118,313.2q-.1-3.2-.42-6a17.37,17.37,0,0,0,2.91.32,7.56,7.56,0,0,0,1.13-.1l1.45-.23q-.19,2.59-.19,5.17h.13q3.41-5.82,9.6-5.82a10.48,10.48,0,0,1,3.16.49,10.88,10.88,0,0,1,2.8,1.33,8.84,8.84,0,0,1,2.16,2A6.94,6.94,0,0,1,1142,313h.13a11.37,11.37,0,0,1,4.24-4.75,11.62,11.62,0,0,1,6.19-1.65,12.94,12.94,0,0,1,4,.58,8,8,0,0,1,5.22,5,13,13,0,0,1,.74,4.65c0,.73,0,1.53-.06,2.39s-.09,1.86-.13,3-.09,2.44-.13,3.88-.06,3.11-.06,5q0,1.75,0,3.36c0,1.08.07,2.24.16,3.49a7.8,7.8,0,0,0-1.42-.13H1158a7.75,7.75,0,0,0-1.42.13q.2-1.62.42-6.53t.23-13.71a12.44,12.44,0,0,0-.36-3,6.85,6.85,0,0,0-1.14-2.46,5.45,5.45,0,0,0-2.08-1.65,7.58,7.58,0,0,0-3.24-.61,8,8,0,0,0-4,.9A7.84,7.84,0,0,0,1144,313a6.74,6.74,0,0,0-.81,1.42,8.63,8.63,0,0,0-.45,2.16q-.16,1.46-.23,4.07t-.06,7.21c0,1.86,0,3.55.1,5.08s.14,3.2.23,5q-1.47-.13-2.81-.13t-2.81.13q.28-3.56.4-7.24t.11-7.24q0-3,0-4.75a26.92,26.92,0,0,0-.16-2.71,8.1,8.1,0,0,0-.36-1.65,12.28,12.28,0,0,0-.61-1.42,5.92,5.92,0,0,0-2.22-2.1,6.16,6.16,0,0,0-3.12-.87q-4.25,0-6.24,2.78t-2,7.82V326q0,2.91.1,6.11t.42,5.79q-1.49-.13-2.91-.13t-2.91.13q.32-2.59.42-5.79t.1-6.11v-6.72Q1118.09,316.4,1118,313.2Z"/><path class="cls-2" d="M1179.39,307.35a16.55,16.55,0,0,1,5-.78,12.91,12.91,0,0,1,4.27.68,9.46,9.46,0,0,1,3.32,1.94,9,9,0,0,1,2.16,3,9.49,9.49,0,0,1,.79,3.91q0,3.69-.13,7.34t-.13,7.73c0,.52,0,1.07,0,1.65a4.93,4.93,0,0,0,.29,1.55,2.92,2.92,0,0,0,.74,1.13,2.07,2.07,0,0,0,1.45.45c.22,0,.44,0,.68,0a1.59,1.59,0,0,0,.68-.22v1.42a7.49,7.49,0,0,1-1.78.52,13.1,13.1,0,0,1-2.36.2,4.46,4.46,0,0,1-3.22-1.07,4.36,4.36,0,0,1-1.31-2.75,17.29,17.29,0,0,1-4.57,3.43,12.55,12.55,0,0,1-5.54,1.1,11.23,11.23,0,0,1-3.16-.45,7.27,7.27,0,0,1-2.74-1.49,8.19,8.19,0,0,1-1.93-2.49,7.23,7.23,0,0,1-.74-3.33,7.61,7.61,0,0,1,2.41-6,13.14,13.14,0,0,1,6.67-2.84q3.48-.58,5.44-1a13.73,13.73,0,0,0,2.9-.87,2,2,0,0,0,1.13-1.07,5.52,5.52,0,0,0,.19-1.58,12.14,12.14,0,0,0-.39-3.11,7.1,7.1,0,0,0-1.23-2.59,6.14,6.14,0,0,0-2.2-1.78,7.3,7.3,0,0,0-3.3-.68,10.28,10.28,0,0,0-4.82,1.16,7.68,7.68,0,0,0-3.33,3.23H1174v-3.36A18.4,18.4,0,0,1,1179.39,307.35Zm8.06,15.13c-1,.17-1.94.36-2.93.55a27.59,27.59,0,0,0-2.93.74A9.46,9.46,0,0,0,1179,325a6,6,0,0,0-1.8,1.94,6.91,6.91,0,0,0,1.06,7.56,5.64,5.64,0,0,0,3.86,1.55,7.88,7.88,0,0,0,4.47-1.36,10.17,10.17,0,0,0,3.12-3.17l.26-9.7A16.39,16.39,0,0,1,1187.45,322.47Z"/><path class="cls-2" d="M1217,349.47a15,15,0,0,0,2.72.22,5.06,5.06,0,0,0,2.74-.71,2.24,2.24,0,0,0,1.13-2,2.15,2.15,0,0,0-1-2,4.45,4.45,0,0,0-2.33-.58,5.54,5.54,0,0,0-2.78.45l-.45-.45,2.26-5.95a19.83,19.83,0,0,1-5.14-1.1,12.22,12.22,0,0,1-4.53-2.85,14.77,14.77,0,0,1-3.2-4.85,17.93,17.93,0,0,1-1.23-7,17,17,0,0,1,1.42-7.24,14.76,14.76,0,0,1,3.72-5,15,15,0,0,1,5.27-2.91,20.17,20.17,0,0,1,6.07-.94,21.46,21.46,0,0,1,6.37.88,11.08,11.08,0,0,1,4,2,19.24,19.24,0,0,0-.81,2,21.48,21.48,0,0,0-.61,2.23h-.52a9,9,0,0,0-1.23-1.71,10.21,10.21,0,0,0-1.85-1.62,10.54,10.54,0,0,0-2.36-1.23,8.08,8.08,0,0,0-2.84-.48,10.91,10.91,0,0,0-5,1.07,9.22,9.22,0,0,0-3.43,2.95,12.74,12.74,0,0,0-1.94,4.44,23.71,23.71,0,0,0-.61,5.54q0,6.67,2.85,10.08t8.34,3.4a10.25,10.25,0,0,0,2.65-.36,14.73,14.73,0,0,0,2.65-1,14.34,14.34,0,0,0,2.42-1.47,12.13,12.13,0,0,0,2-1.84l.32.19a19.5,19.5,0,0,0-.39,3.17,16.3,16.3,0,0,1-4.46,2.52,17.32,17.32,0,0,1-5.56,1.16l-1.36,3.82c.26-.09.53-.16.81-.23a5,5,0,0,1,1.06-.1,5.75,5.75,0,0,1,3.95,1.26,4.25,4.25,0,0,1,1.42,3.33,4.6,4.6,0,0,1-.61,2.39,5.13,5.13,0,0,1-1.68,1.71,8.41,8.41,0,0,1-2.45,1,11.93,11.93,0,0,1-2.94.36,13.18,13.18,0,0,1-3.43-.39c-.95-.26-1.73-.5-2.33-.71l.9-2.07A8.79,8.79,0,0,0,1217,349.47Z"/><path class="cls-2" d="M1247.28,307.35a16.55,16.55,0,0,1,5-.78,12.91,12.91,0,0,1,4.27.68,9.46,9.46,0,0,1,3.32,1.94,9,9,0,0,1,2.16,3,9.49,9.49,0,0,1,.79,3.91q0,3.69-.13,7.34t-.13,7.73c0,.52,0,1.07,0,1.65a4.93,4.93,0,0,0,.29,1.55,2.92,2.92,0,0,0,.74,1.13,2.07,2.07,0,0,0,1.45.45c.22,0,.44,0,.68,0a1.59,1.59,0,0,0,.68-.22v1.42a7.49,7.49,0,0,1-1.78.52,13.1,13.1,0,0,1-2.36.2,4.46,4.46,0,0,1-3.22-1.07,4.36,4.36,0,0,1-1.31-2.75,17.29,17.29,0,0,1-4.57,3.43,12.55,12.55,0,0,1-5.54,1.1,11.23,11.23,0,0,1-3.16-.45,7.27,7.27,0,0,1-2.74-1.49,8.19,8.19,0,0,1-1.93-2.49,7.23,7.23,0,0,1-.74-3.33,7.61,7.61,0,0,1,2.41-6,13.14,13.14,0,0,1,6.67-2.84q3.48-.58,5.44-1a13.73,13.73,0,0,0,2.9-.87,2,2,0,0,0,1.13-1.07,5.52,5.52,0,0,0,.19-1.58,12.14,12.14,0,0,0-.39-3.11,7.1,7.1,0,0,0-1.23-2.59,6.14,6.14,0,0,0-2.2-1.78,7.3,7.3,0,0,0-3.3-.68,10.28,10.28,0,0,0-4.82,1.16,7.68,7.68,0,0,0-3.33,3.23h-.71v-3.36A18.4,18.4,0,0,1,1247.28,307.35Zm-4.69-9.63a7.79,7.79,0,0,1,1.32-2.13,6.82,6.82,0,0,1,2-1.59,5.72,5.72,0,0,1,2.72-.61,5.91,5.91,0,0,1,2,.32c.6.22,1.51.6,2.72,1.16a26.91,26.91,0,0,0,2.62,1.2,4.78,4.78,0,0,0,1.65.29,3.12,3.12,0,0,0,2.39-1,5.7,5.7,0,0,0,1.3-2.26h1.88a14.35,14.35,0,0,1-.52,1.94,8.77,8.77,0,0,1-1.2,2.3,6.92,6.92,0,0,1-2.1,1.91,6.18,6.18,0,0,1-3.23.78,7.48,7.48,0,0,1-2-.32,12.52,12.52,0,0,1-2.62-1.16,17.85,17.85,0,0,0-2.55-1.2,5.18,5.18,0,0,0-1.65-.29,3.07,3.07,0,0,0-2.17.65,6,6,0,0,0-1.26,2.33h-1.94A10.6,10.6,0,0,1,1242.59,297.71Zm12.75,24.76c-1,.17-1.94.36-2.93.55a27.59,27.59,0,0,0-2.93.74,9.46,9.46,0,0,0-2.57,1.23,6,6,0,0,0-1.8,1.94,6.91,6.91,0,0,0,1.06,7.56,5.64,5.64,0,0,0,3.86,1.55,7.88,7.88,0,0,0,4.47-1.36,10.17,10.17,0,0,0,3.12-3.17l.26-9.7A16.39,16.39,0,0,1,1255.34,322.47Z"/><path class="cls-2" d="M1274,315.2a13.84,13.84,0,0,1,3.65-5,14.4,14.4,0,0,1,5.07-2.78,18.41,18.41,0,0,1,11.22,0,14.52,14.52,0,0,1,5,2.78,14,14,0,0,1,3.65,5,20.81,20.81,0,0,1,0,14.94,14,14,0,0,1-3.65,5,13.35,13.35,0,0,1-5,2.68,20.66,20.66,0,0,1-11.22,0,13.26,13.26,0,0,1-5.07-2.68,13.82,13.82,0,0,1-3.65-5,20.73,20.73,0,0,1,0-14.94Zm4.78,12.71a13.91,13.91,0,0,0,1.65,4.49,8.89,8.89,0,0,0,3.1,3.14,10.43,10.43,0,0,0,9.57,0,8.8,8.8,0,0,0,3.1-3.14,13.91,13.91,0,0,0,1.65-4.49,28.63,28.63,0,0,0,0-10.47,13.91,13.91,0,0,0-1.65-4.49,8.78,8.78,0,0,0-3.1-3.14,10.43,10.43,0,0,0-9.57,0,8.87,8.87,0,0,0-3.1,3.14,13.91,13.91,0,0,0-1.65,4.49,28.63,28.63,0,0,0,0,10.47Z"/><path class="cls-3" d="M113.43,206.34c-1.16.05-2.33.09-3.5.09a74.92,74.92,0,1,1,0-149.84c1.17,0,2.34,0,3.5.09v-35c-1.17,0-2.33-.09-3.5-.09a109.93,109.93,0,0,0,0,219.85c1.17,0,2.34-.05,3.5-.09Z"/><ellipse class="cls-4" cx="1148.45" cy="32.37" rx="38.32" ry="32.27" transform="translate(4.65 140.53) rotate(-7.02)"/><ellipse class="cls-5" cx="1074.23" cy="215.82" rx="11.2" ry="9.43" transform="translate(-18.32 132.84) rotate(-7.02)"/><polygon class="cls-6" points="1173.49 69.19 1128.68 78.99 1159.49 228.83 1177.69 219.03 1173.49 69.19"/><path class="cls-7" d="M208,60.79c-39.83,0-72.12,36.05-72.12,80.52s32.29,80.52,72.12,80.52,72.12-36.05,72.12-80.52S247.78,60.79,208,60.79Zm0,154c-29,0-52.51-32.92-52.51-73.52S178.95,67.79,208,67.79s52.51,32.92,52.51,73.52S237,214.83,208,214.83ZM428.51,65h9.8V221.83h-5.89L333.28,86V219h-9.8V65h18.2l86.82,119Zm560.14,0h63v8.4h-63V221.83h-18.2V73.39h-63V65h81.22Zm361.29,0v8.4h-63V221.83h-18.2V73.39h-63V65h144.24ZM812.2,214.83h84v7H794V65h18.2ZM726.78,65h9.8V185.42c-9.8,26.61-34.77,37.81-58.81,37.81-23.59,0-54.79-10.79-57.28-35h-.13V65h18.2V185.42c1.4,18.2,24.71,29.41,43.41,29.41,17.65,0,33-9.4,44.89-26.63l-.08,0ZM582.23,179.72c-2.4,18.66-19.15,33-37.49,39-25.25,8.21-44-.34-61.13-17.64a19,19,0,0,1-3.56-5.87c-.79-1.8.89-2.86,2.86-2.8,1.62.05,8,5.35,10,7.05C509.76,214,525.13,212,544.74,205c9.9-3.53,20-13.3,20.6-25.24.58-11.27-4.94-18.15-14.43-22.12-14.58-6.1-29.46-11.47-44-17.72-15.9-6.84-26.35-22.7-25.59-37.6.88-17.22,11.94-30.48,28.34-37.74,24.58-10.88,56.59,2.9,62.77,23.25v0a3.63,3.63,0,0,1-4.72,4.38c-1.91-.67-10.35-16.35-30-20.28-14-2.8-27,2.4-33.79,9.86-12.25,13.45-3.48,32.74,16.86,39.07a309.59,309.59,0,0,1,35.46,13.25C573.86,142.11,584.55,161.7,582.23,179.72Z"/><g class="cls-8"><path class="cls-2" d="M106.36,315.43a14.73,14.73,0,0,1,3.72-5,14.9,14.9,0,0,1,5.27-2.91,20.18,20.18,0,0,1,6.08-.94,21.44,21.44,0,0,1,6.37.88,11.12,11.12,0,0,1,4,2,18.1,18.1,0,0,0-.81,2,22.21,22.21,0,0,0-.61,2.23h-.52a9,9,0,0,0-1.23-1.71,10.71,10.71,0,0,0-4.2-2.85,8.09,8.09,0,0,0-2.84-.48,11,11,0,0,0-5,1.07,9.25,9.25,0,0,0-3.43,2.94,12.74,12.74,0,0,0-1.94,4.43,23.49,23.49,0,0,0-.62,5.53q0,6.66,2.85,10.05t8.34,3.4a10.36,10.36,0,0,0,2.65-.36,14.92,14.92,0,0,0,2.65-1,14.48,14.48,0,0,0,2.43-1.45,12.37,12.37,0,0,0,2-1.81l.32.19a19.19,19.19,0,0,0-.39,3.17,17.87,17.87,0,0,1-4.82,2.65,16.63,16.63,0,0,1-6,1.1,20.24,20.24,0,0,1-5.59-.81A13.63,13.63,0,0,1,110,335a13.9,13.9,0,0,1-3.65-4.95,17.82,17.82,0,0,1-1.39-7.44A17,17,0,0,1,106.36,315.43Z"/><path class="cls-2" d="M139.82,315.2a13.84,13.84,0,0,1,3.65-5,14.4,14.4,0,0,1,5.07-2.78,18.41,18.41,0,0,1,11.22,0,14.49,14.49,0,0,1,5,2.78,13.87,13.87,0,0,1,3.65,5,20.77,20.77,0,0,1,0,14.94,13.86,13.86,0,0,1-3.65,5,13.32,13.32,0,0,1-5,2.68,20.66,20.66,0,0,1-11.22,0,13.26,13.26,0,0,1-5.07-2.68,13.82,13.82,0,0,1-3.65-5,20.73,20.73,0,0,1,0-14.94Zm4.78,12.71a14,14,0,0,0,1.65,4.49,8.85,8.85,0,0,0,3.1,3.14,10.43,10.43,0,0,0,9.57,0A8.83,8.83,0,0,0,162,332.4a14,14,0,0,0,1.65-4.49,28.46,28.46,0,0,0,0-10.47,14,14,0,0,0-1.65-4.49,8.81,8.81,0,0,0-3.11-3.14,10.43,10.43,0,0,0-9.57,0,8.82,8.82,0,0,0-3.1,3.14,14,14,0,0,0-1.65,4.49,28.46,28.46,0,0,0,0,10.47Z"/><path class="cls-2" d="M197.85,312.42a6.12,6.12,0,0,0-5.17-2.49q-4.53,0-6.63,2.78t-2.1,7.82V326q0,2.91.1,6.11t.42,5.79q-1.49-.13-2.91-.13c-.95,0-1.92,0-2.91.13q.32-2.59.42-5.79t.1-6.11v-6.72q0-2.91-.1-6.11t-.42-6a17.31,17.31,0,0,0,2.91.32,7.6,7.6,0,0,0,1.13-.1l1.45-.23q-.2,2.59-.19,5.17h.13a13.54,13.54,0,0,1,4.34-4.3,11.52,11.52,0,0,1,6-1.52,13.58,13.58,0,0,1,3.66.52,8.81,8.81,0,0,1,3.34,1.78,9.19,9.19,0,0,1,2.43,3.43,14,14,0,0,1,.94,5.53q0,2.78-.13,5.72t-.13,6.24V334q0,1,0,2c0,.67.05,1.3.1,1.91a27.46,27.46,0,0,0-2.75-.13,26.71,26.71,0,0,0-2.68.13q.13-3.36.29-6.92t.16-7.31v-3.94Q199.73,314.91,197.85,312.42Z"/><path class="cls-2" d="M216.89,333.34a9.72,9.72,0,0,0,1.62,1.45,9.11,9.11,0,0,0,2.13,1.13,7.43,7.43,0,0,0,4.92.07,6.43,6.43,0,0,0,2-1.1,5.11,5.11,0,0,0,1.39-1.81,5.88,5.88,0,0,0,.52-2.52,4,4,0,0,0-1.13-3.07,8.89,8.89,0,0,0-2.81-1.74,29.74,29.74,0,0,0-3.69-1.2,15.45,15.45,0,0,1-3.68-1.45,8.69,8.69,0,0,1-2.81-2.49,7.13,7.13,0,0,1-1.13-4.27,10.43,10.43,0,0,1,.71-3.91,8.61,8.61,0,0,1,2.07-3.07,9.72,9.72,0,0,1,3.36-2,13.18,13.18,0,0,1,4.59-.74,11.15,11.15,0,0,1,4,.65q1.65.65,3.14,1.16a14.14,14.14,0,0,0-1,2.39,17,17,0,0,0-.58,2.2h-.78a6.11,6.11,0,0,0-2-2.78A5.6,5.6,0,0,0,224.1,309a6.1,6.1,0,0,0-1.94.32,5.35,5.35,0,0,0-1.74,1,5.12,5.12,0,0,0-1.29,1.68,5.42,5.42,0,0,0-.52,2.46,4.31,4.31,0,0,0,1.13,3.2,7.88,7.88,0,0,0,2.81,1.78,29.57,29.57,0,0,0,3.68,1.13,16.3,16.3,0,0,1,3.68,1.36,8,8,0,0,1,2.81,2.43,7.13,7.13,0,0,1,1.13,4.27,9,9,0,0,1-.81,3.68,10.31,10.31,0,0,1-2.33,3.26,10.71,10.71,0,0,1-3.65,2.26,13.67,13.67,0,0,1-4.85.81,18.07,18.07,0,0,1-5-.58,15.48,15.48,0,0,1-3.36-1.36,16.94,16.94,0,0,0,.81-2.29,9.16,9.16,0,0,0,.42-2.43h.78A6.87,6.87,0,0,0,216.89,333.34Z"/><path class="cls-2" d="M243.08,322.31q.09-2.42.1-4.82t0-4.91q0-2.65-.1-5.37a14.25,14.25,0,0,0,2.72.32,14,14,0,0,0,2.65-.32q-.32,3.88-.49,8.5t-.16,9.47a17.5,17.5,0,0,0,.58,5.14,7.25,7.25,0,0,0,1.42,2.68,7.14,7.14,0,0,0,2.3,1.71,7.37,7.37,0,0,0,3.26.68,8,8,0,0,0,4.53-1.2,7.34,7.34,0,0,0,2.65-2.94c.3-.73.54-1.36.71-1.88a11.07,11.07,0,0,0,.42-2.07,33.7,33.7,0,0,0,.2-3.49q0-2.2,0-6v-5.43q0-1.42,0-2.72t-.1-2.46l1.36.23a9.59,9.59,0,0,0,2.72,0c.43-.07.86-.14,1.29-.23q-.32,5-.39,9.73t-.07,9.92q0,2.91.07,5.69t.19,5.37a24.39,24.39,0,0,0-5,0c0-.39.07-.8.1-1.23s0-.88,0-1.36v-2.78h-.13a11,11,0,0,1-4.33,4.56,11.78,11.78,0,0,1-5.75,1.45q-5,0-7.92-2.68T243,328.16Q243,324.74,243.08,322.31Z"/><path class="cls-2" d="M282.2,303q0-2.59-.1-5.11c0-1.68-.1-3.29-.16-4.82s-.14-2.84-.23-3.91a13.23,13.23,0,0,0,5.82,0q-.13,1.62-.22,3.91t-.16,4.82q-.07,2.52-.1,5.11t0,4.78v11.7q0,2.2,0,4.78t.1,5.11q.06,2.52.16,4.78t.22,3.75q-1.49-.13-2.91-.13t-2.91.13q.13-1.49.23-3.75c.07-1.51.12-3.11.16-4.78s.07-3.38.1-5.11,0-3.32,0-4.78V307.8Q282.23,305.6,282.2,303Z"/><path class="cls-2" d="M306,298.55q-.19,2.45-.29,4.82t-.23,4.75l2.65,0c1.3,0,2.69-.07,4.2-.16a2.52,2.52,0,0,0-.07.71V310a2.16,2.16,0,0,0,.07.64q-.84-.06-1.75-.1c-.61,0-1.25,0-1.94,0H305.5q-.06.26-.16,2.07c-.06,1.21-.12,2.64-.16,4.3s-.08,3.4-.1,5.2,0,3.43,0,4.85q0,1.81.1,3.55a10.71,10.71,0,0,0,.61,3.14,5.08,5.08,0,0,0,1.55,2.23,4.59,4.59,0,0,0,3,.84,10.13,10.13,0,0,0,1.39-.13,11.37,11.37,0,0,0,1.52-.32v1.55c-.73.13-1.54.29-2.42.49a12,12,0,0,1-2.55.29q-4.07,0-6-2a8.14,8.14,0,0,1-1.94-5.88q0-1.75.07-3.78t.16-4.46q.09-2.42.16-5.37t.06-6.56h-2.07l-1.1,0-1.23.1c0-.26.07-.51.1-.74s0-.48,0-.74,0-.43,0-.65-.05-.43-.1-.64q2.91.19,4.27.19c0-.86-.08-1.94-.1-3.23s-.08-2.63-.16-4l5.37-2.26Z"/><path class="cls-2" d="M318.47,315.2a13.84,13.84,0,0,1,3.65-5,14.4,14.4,0,0,1,5.07-2.78,18.41,18.41,0,0,1,11.22,0,14.49,14.49,0,0,1,5,2.78,13.87,13.87,0,0,1,3.65,5,20.77,20.77,0,0,1,0,14.94,13.86,13.86,0,0,1-3.65,5,13.32,13.32,0,0,1-5,2.68,20.66,20.66,0,0,1-11.22,0,13.26,13.26,0,0,1-5.07-2.68,13.82,13.82,0,0,1-3.65-5,20.73,20.73,0,0,1,0-14.94Zm4.78,12.71a14,14,0,0,0,1.65,4.49,8.85,8.85,0,0,0,3.1,3.14,10.43,10.43,0,0,0,9.57,0,8.83,8.83,0,0,0,3.11-3.14,14,14,0,0,0,1.65-4.49,28.46,28.46,0,0,0,0-10.47,14,14,0,0,0-1.65-4.49,8.81,8.81,0,0,0-3.11-3.14,10.43,10.43,0,0,0-9.57,0,8.82,8.82,0,0,0-3.1,3.14,14,14,0,0,0-1.65,4.49,28.46,28.46,0,0,0,0,10.47Z"/><path class="cls-2" d="M370.84,311.81a5.81,5.81,0,0,0-1.91-.32,5.47,5.47,0,0,0-2.78.71,6.47,6.47,0,0,0-2.07,1.91,9.09,9.09,0,0,0-1.29,2.84,13.28,13.28,0,0,0-.45,3.52v7.11q0,4.33,0,6.63a31.27,31.27,0,0,0,.23,3.72,25.47,25.47,0,0,0-2.59-.13,26.68,26.68,0,0,0-2.71.13q.19-2.2.22-6t0-9.28V320.6q0-2.52,0-5.82t-.22-7.57l1.36.23a9.46,9.46,0,0,0,1.36.1,8.61,8.61,0,0,0,1.23-.1l1.36-.23q-.26,2.33-.29,3.68c0,.91,0,1.77,0,2.59l.13.07q3.81-7,8.53-7a6.76,6.76,0,0,1,1,.07A5.2,5.2,0,0,1,373,307a7.25,7.25,0,0,0-.39,2.36q-.06,1.59-.07,2.88l-.45.32A2.9,2.9,0,0,0,370.84,311.81Z"/><path class="cls-2" d="M382.19,293.64a3.28,3.28,0,1,1-1,2.33A3.17,3.17,0,0,1,382.19,293.64ZM382,313.2q-.1-3.2-.42-6a13.23,13.23,0,0,0,5.82,0q-.32,2.78-.42,6t-.1,6.11V326q0,2.91.1,6.11t.42,5.79q-1.49-.13-2.91-.13t-2.91.13q.32-2.59.42-5.79t.1-6.11v-6.72Q382.12,316.4,382,313.2Z"/><path class="cls-2" d="M406,307.35a16.57,16.57,0,0,1,5-.78,12.92,12.92,0,0,1,4.27.68,9.51,9.51,0,0,1,3.32,1.94,9,9,0,0,1,2.16,3,9.58,9.58,0,0,1,.79,3.91q0,3.69-.13,7.34t-.13,7.73c0,.52,0,1.07,0,1.65a4.85,4.85,0,0,0,.29,1.55,3,3,0,0,0,.74,1.13,2.07,2.07,0,0,0,1.45.45c.22,0,.44,0,.68,0a1.59,1.59,0,0,0,.68-.22v1.42a7.45,7.45,0,0,1-1.78.52,13.09,13.09,0,0,1-2.36.2,4.46,4.46,0,0,1-3.21-1.07,4.36,4.36,0,0,1-1.31-2.75,17.39,17.39,0,0,1-4.58,3.43,12.57,12.57,0,0,1-5.54,1.1,11.19,11.19,0,0,1-3.16-.45,7.23,7.23,0,0,1-2.74-1.49,8.11,8.11,0,0,1-1.93-2.49,7.26,7.26,0,0,1-.74-3.33,7.6,7.6,0,0,1,2.41-6,13.13,13.13,0,0,1,6.67-2.84q3.48-.58,5.45-1a13.73,13.73,0,0,0,2.9-.87,2,2,0,0,0,1.13-1.07,5.33,5.33,0,0,0,.19-1.58,12.27,12.27,0,0,0-.39-3.11,7.2,7.2,0,0,0-1.23-2.59,6.2,6.2,0,0,0-2.2-1.78,7.33,7.33,0,0,0-3.3-.68,10.25,10.25,0,0,0-4.82,1.16,7.64,7.64,0,0,0-3.33,3.23h-.71v-3.36A18.39,18.39,0,0,1,406,307.35ZM414,322.47q-1.45.26-2.93.55a27.59,27.59,0,0,0-2.93.74,9.46,9.46,0,0,0-2.57,1.23,6,6,0,0,0-1.8,1.94,6.91,6.91,0,0,0,1.06,7.56,5.66,5.66,0,0,0,3.86,1.55,7.88,7.88,0,0,0,4.47-1.36,10.21,10.21,0,0,0,3.12-3.17l.26-9.7A16.23,16.23,0,0,1,414,322.47Z"/><path class="cls-2" d="M454.7,311.09q3.78-4.52,11-4.53a15,15,0,0,1,5.92,1.07,12.35,12.35,0,0,1,4.17,2.84,11.27,11.27,0,0,1,2.49,4.17,15.83,15.83,0,0,1,.81,5.11c0,.43,0,.85,0,1.26s-.05.83-.1,1.26l-6.92-.13q-3.43-.06-6.92-.07-2.14,0-4.24.07l-4.23.13a5.41,5.41,0,0,0-.07,1v.84a14.6,14.6,0,0,0,.74,4.72,10.69,10.69,0,0,0,2.16,3.78,10.37,10.37,0,0,0,3.49,2.52,11.48,11.48,0,0,0,4.78.94,10.39,10.39,0,0,0,2.65-.36,15,15,0,0,0,2.65-1,14.46,14.46,0,0,0,2.42-1.45,12.4,12.4,0,0,0,2-1.81l.32.19-.39,3.17a17.89,17.89,0,0,1-4.82,2.65,16.6,16.6,0,0,1-6,1.1,18.21,18.21,0,0,1-6.37-1.07,14.1,14.1,0,0,1-5-3.11,13.9,13.9,0,0,1-3.23-4.82,15.77,15.77,0,0,1-1.13-6Q450.91,315.62,454.7,311.09Zm7.11-1.36a9.44,9.44,0,0,0-2.72,2.75,13.11,13.11,0,0,0-1.62,3.62,19.32,19.32,0,0,0-.68,3.72L461,320q2.16.06,4.24.07c1.42,0,2.87,0,4.33-.07l4.27-.13a25,25,0,0,0-.29-3.69,11.48,11.48,0,0,0-1.16-3.62,7.71,7.71,0,0,0-2.42-2.78,6.9,6.9,0,0,0-4.07-1.1A7.12,7.12,0,0,0,461.81,309.74Z"/><path class="cls-2" d="M487.54,313.2q-.1-3.2-.42-6a17.37,17.37,0,0,0,2.91.32,7.56,7.56,0,0,0,1.13-.1l1.45-.23q-.19,2.59-.19,5.17h.13q3.41-5.82,9.6-5.82a10.47,10.47,0,0,1,3.16.49,10.9,10.9,0,0,1,2.8,1.33,8.86,8.86,0,0,1,2.16,2A6.86,6.86,0,0,1,511.5,313h.13a11.41,11.41,0,0,1,4.24-4.75,11.62,11.62,0,0,1,6.19-1.65,13,13,0,0,1,4,.58,8,8,0,0,1,5.22,5,13,13,0,0,1,.74,4.65q0,1.1-.07,2.39c0,.86-.09,1.86-.13,3s-.09,2.44-.13,3.88-.06,3.11-.06,5c0,1.16,0,2.29,0,3.36s.07,2.24.16,3.49a7.78,7.78,0,0,0-1.42-.13H527.6a7.78,7.78,0,0,0-1.42.13q.2-1.62.42-6.53t.23-13.71a12.44,12.44,0,0,0-.36-3,6.8,6.8,0,0,0-1.14-2.46,5.49,5.49,0,0,0-2.08-1.65,7.57,7.57,0,0,0-3.24-.61,8,8,0,0,0-4,.9,7.88,7.88,0,0,0-2.53,2.13,6.86,6.86,0,0,0-.81,1.42,8.63,8.63,0,0,0-.45,2.16q-.16,1.46-.23,4.07t-.06,7.21q0,2.78.1,5.08t.22,5c-1-.09-1.91-.13-2.81-.13s-1.83,0-2.81.13q.29-3.56.4-7.24t.12-7.24q0-3,0-4.75A26,26,0,0,0,507,316a8.34,8.34,0,0,0-.35-1.65,12.87,12.87,0,0,0-.61-1.42,5.88,5.88,0,0,0-2.22-2.1,6.16,6.16,0,0,0-3.12-.87q-4.25,0-6.24,2.78t-2,7.82V326q0,2.91.1,6.11t.42,5.79q-1.49-.13-2.91-.13t-2.91.13q.32-2.59.42-5.79t.1-6.11v-6.72Q487.64,316.4,487.54,313.2Z"/><path class="cls-2" d="M568.46,298.55q-.19,2.45-.29,4.82t-.23,4.75l2.65,0c1.3,0,2.69-.07,4.2-.16a2.52,2.52,0,0,0-.07.71V310a2.16,2.16,0,0,0,.07.64q-.84-.06-1.75-.1c-.61,0-1.25,0-1.94,0h-3.17q-.06.26-.16,2.07c-.06,1.21-.12,2.64-.16,4.3s-.08,3.4-.1,5.2,0,3.43,0,4.85q0,1.81.1,3.55a10.71,10.71,0,0,0,.61,3.14,5.08,5.08,0,0,0,1.55,2.23,4.59,4.59,0,0,0,3,.84,10.13,10.13,0,0,0,1.39-.13,11.37,11.37,0,0,0,1.52-.32v1.55c-.73.13-1.54.29-2.42.49a12,12,0,0,1-2.55.29q-4.07,0-6-2a8.14,8.14,0,0,1-1.94-5.88q0-1.75.07-3.78t.16-4.46q.09-2.42.16-5.37t.06-6.56h-2.07l-1.1,0-1.23.1c0-.26.07-.51.1-.74s0-.48,0-.74,0-.43,0-.65-.05-.43-.1-.64q2.91.19,4.27.19c0-.86-.08-1.94-.1-3.23s-.08-2.63-.16-4l5.37-2.26Z"/><path class="cls-2" d="M583.3,311.09q3.78-4.52,11-4.53a15,15,0,0,1,5.92,1.07,12.35,12.35,0,0,1,4.17,2.84,11.27,11.27,0,0,1,2.49,4.17,15.83,15.83,0,0,1,.81,5.11c0,.43,0,.85,0,1.26s-.05.83-.1,1.26l-6.92-.13q-3.43-.06-6.92-.07-2.14,0-4.24.07l-4.23.13a5.41,5.41,0,0,0-.07,1v.84a14.6,14.6,0,0,0,.74,4.72,10.69,10.69,0,0,0,2.16,3.78,10.37,10.37,0,0,0,3.49,2.52,11.48,11.48,0,0,0,4.78.94,10.39,10.39,0,0,0,2.65-.36,15,15,0,0,0,2.65-1,14.46,14.46,0,0,0,2.42-1.45,12.4,12.4,0,0,0,2-1.81l.32.19-.39,3.17a17.89,17.89,0,0,1-4.82,2.65,16.6,16.6,0,0,1-6,1.1,18.21,18.21,0,0,1-6.37-1.07,14.1,14.1,0,0,1-5-3.11,13.9,13.9,0,0,1-3.23-4.82,15.77,15.77,0,0,1-1.13-6Q579.51,315.62,583.3,311.09Zm7.11-1.36a9.44,9.44,0,0,0-2.72,2.75,13.11,13.11,0,0,0-1.62,3.62,19.32,19.32,0,0,0-.68,3.72l4.17.13q2.16.06,4.24.07c1.42,0,2.87,0,4.33-.07l4.27-.13a25,25,0,0,0-.29-3.69,11.48,11.48,0,0,0-1.16-3.62,7.71,7.71,0,0,0-2.42-2.78,6.9,6.9,0,0,0-4.07-1.1A7.12,7.12,0,0,0,590.41,309.74Z"/><path class="cls-2" d="M615.33,315.43a14.73,14.73,0,0,1,3.72-5,14.9,14.9,0,0,1,5.27-2.91,20.18,20.18,0,0,1,6.08-.94,21.44,21.44,0,0,1,6.37.88,11.12,11.12,0,0,1,4,2,18.1,18.1,0,0,0-.81,2,22.21,22.21,0,0,0-.61,2.23h-.52a9,9,0,0,0-1.23-1.71,10.71,10.71,0,0,0-4.2-2.85,8.09,8.09,0,0,0-2.84-.48,11,11,0,0,0-5,1.07,9.25,9.25,0,0,0-3.43,2.94,12.74,12.74,0,0,0-1.94,4.43,23.49,23.49,0,0,0-.62,5.53q0,6.66,2.85,10.05t8.34,3.4a10.36,10.36,0,0,0,2.65-.36,14.92,14.92,0,0,0,2.65-1,14.48,14.48,0,0,0,2.43-1.45,12.37,12.37,0,0,0,2-1.81l.32.19a19.2,19.2,0,0,0-.39,3.17,17.87,17.87,0,0,1-4.82,2.65,16.63,16.63,0,0,1-6,1.1,20.24,20.24,0,0,1-5.59-.81A13.63,13.63,0,0,1,619,335a13.9,13.9,0,0,1-3.65-4.95,17.82,17.82,0,0,1-1.39-7.44A17,17,0,0,1,615.33,315.43Z"/><path class="cls-2" d="M669.25,312.42a6.12,6.12,0,0,0-5.17-2.49q-4.53,0-6.63,2.78t-2.1,7.82V326q0,2.91.1,6.11t.42,5.79q-1.49-.13-2.91-.13c-.95,0-1.92,0-2.91.13q.32-2.59.42-5.79t.1-6.11v-6.72q0-2.91-.1-6.11t-.42-6a17.31,17.31,0,0,0,2.91.32,7.6,7.6,0,0,0,1.13-.1l1.45-.23q-.2,2.59-.19,5.17h.13a13.54,13.54,0,0,1,4.34-4.3,11.52,11.52,0,0,1,6-1.52,13.58,13.58,0,0,1,3.66.52,8.81,8.81,0,0,1,3.34,1.78,9.19,9.19,0,0,1,2.43,3.43,14,14,0,0,1,.94,5.53q0,2.78-.13,5.72t-.13,6.24V334q0,1,0,2c0,.67.05,1.3.1,1.91a27.46,27.46,0,0,0-2.75-.13,26.71,26.71,0,0,0-2.68.13q.13-3.36.29-6.92t.16-7.31v-3.94Q671.13,314.91,669.25,312.42Z"/><path class="cls-2" d="M686.36,315.2a13.84,13.84,0,0,1,3.65-5,14.4,14.4,0,0,1,5.07-2.78,18.41,18.41,0,0,1,11.22,0,14.49,14.49,0,0,1,5,2.78,13.87,13.87,0,0,1,3.65,5,20.77,20.77,0,0,1,0,14.94,13.86,13.86,0,0,1-3.65,5,13.32,13.32,0,0,1-5,2.68,20.66,20.66,0,0,1-11.22,0,13.26,13.26,0,0,1-5.07-2.68,13.82,13.82,0,0,1-3.65-5,20.73,20.73,0,0,1,0-14.94Zm4.78,12.71a14,14,0,0,0,1.65,4.49,8.85,8.85,0,0,0,3.1,3.14,10.43,10.43,0,0,0,9.57,0,8.83,8.83,0,0,0,3.11-3.14,14,14,0,0,0,1.65-4.49,28.46,28.46,0,0,0,0-10.47,14,14,0,0,0-1.65-4.49,8.81,8.81,0,0,0-3.11-3.14,10.43,10.43,0,0,0-9.57,0,8.82,8.82,0,0,0-3.1,3.14,14,14,0,0,0-1.65,4.49,28.46,28.46,0,0,0,0,10.47Z"/><path class="cls-2" d="M726.83,303q0-2.59-.1-5.11c0-1.68-.1-3.29-.16-4.82s-.14-2.84-.23-3.91a13.23,13.23,0,0,0,5.82,0q-.13,1.62-.22,3.91t-.16,4.82q-.07,2.52-.1,5.11t0,4.78v11.7q0,2.2,0,4.78t.1,5.11q.06,2.52.16,4.78t.22,3.75q-1.49-.13-2.91-.13t-2.91.13q.13-1.49.23-3.75c.07-1.51.12-3.11.16-4.78s.07-3.38.1-5.11,0-3.32,0-4.78V307.8Q726.86,305.6,726.83,303Z"/><path class="cls-2" d="M743.51,315.2a13.84,13.84,0,0,1,3.65-5,14.4,14.4,0,0,1,5.07-2.78,18.41,18.41,0,0,1,11.22,0,14.49,14.49,0,0,1,5,2.78,13.87,13.87,0,0,1,3.65,5,20.77,20.77,0,0,1,0,14.94,13.86,13.86,0,0,1-3.65,5,13.32,13.32,0,0,1-5,2.68,20.66,20.66,0,0,1-11.22,0,13.26,13.26,0,0,1-5.07-2.68,13.82,13.82,0,0,1-3.65-5,20.73,20.73,0,0,1,0-14.94Zm4.78,12.71a14,14,0,0,0,1.65,4.49,8.85,8.85,0,0,0,3.1,3.14,10.43,10.43,0,0,0,9.57,0,8.83,8.83,0,0,0,3.11-3.14,14,14,0,0,0,1.65-4.49,28.46,28.46,0,0,0,0-10.47,14,14,0,0,0-1.65-4.49,8.81,8.81,0,0,0-3.11-3.14,10.43,10.43,0,0,0-9.57,0,8.82,8.82,0,0,0-3.1,3.14,14,14,0,0,0-1.65,4.49,28.46,28.46,0,0,0,0,10.47Z"/><path class="cls-2" d="M781.63,312.42a9,9,0,0,1,2.68-3.26,12,12,0,0,1,3.94-1.94,17.06,17.06,0,0,1,4.75-.65q1.23,0,2.36.07l2.88.19q1.49.13,2.65.2t1.88.06a29.82,29.82,0,0,0,5.24-.32,6.1,6.1,0,0,0-.1.68c0,.24,0,.46,0,.68s0,.44,0,.68a6.05,6.05,0,0,0,.1.68q-1.88-.13-3.65-.29t-3.52-.23l-.13.13a8.07,8.07,0,0,1,3.23,3.4,10,10,0,0,1,1.23,4.75,9.39,9.39,0,0,1-3.27,7.6q-3.26,2.75-8.76,2.75c-.61,0-1.2,0-1.78-.06s-1.17-.07-1.78-.07a3.31,3.31,0,0,0-2.16.84,2.66,2.66,0,0,0-1,2.13,3.27,3.27,0,0,0,.81,2.45,4.56,4.56,0,0,0,3,.84c1.2,0,2.39.08,3.55.1l3.56.1a18.79,18.79,0,0,1,5.08.71,9.93,9.93,0,0,1,3.43,1.74,6.76,6.76,0,0,1,1.94,2.52,7.74,7.74,0,0,1,.62,3.1,13,13,0,0,1-.88,4.59,11.92,11.92,0,0,1-2.71,4.2,14.43,14.43,0,0,1-4.75,3.1,17.92,17.92,0,0,1-7,1.23q-6.27,0-9.89-2.49a7.86,7.86,0,0,1-3.62-6.82,7.73,7.73,0,0,1,.61-3.1,9.39,9.39,0,0,1,1.59-2.52,7.65,7.65,0,0,1,2.2-1.74,11.22,11.22,0,0,1,2.52-1v-.13a5.67,5.67,0,0,1-3-1.94,5.2,5.2,0,0,1-1-3.23,4.68,4.68,0,0,1,.42-2,6.37,6.37,0,0,1,1.07-1.62,5.52,5.52,0,0,1,1.49-1.16,5.31,5.31,0,0,1,1.62-.58v-.13a10.86,10.86,0,0,1-4.65-3.65,9.93,9.93,0,0,1-1.68-5.92A10.55,10.55,0,0,1,781.63,312.42Zm19.72,26.93q-2.26-1.55-7.5-1.55a14.7,14.7,0,0,0-7.5,1.59q-2.65,1.58-2.65,5.72a8.63,8.63,0,0,0,.74,3.75,6.84,6.84,0,0,0,2,2.52,8.26,8.26,0,0,0,3,1.42,14.91,14.91,0,0,0,3.75.45,14.31,14.31,0,0,0,3.81-.52,10.59,10.59,0,0,0,3.33-1.55,8.11,8.11,0,0,0,2.36-2.62,7.52,7.52,0,0,0,.91-3.78Q803.61,340.9,801.35,339.35Zm-3.17-28.77a7.31,7.31,0,0,0-10.54.23,9.61,9.61,0,0,0-1.94,6.3,10.44,10.44,0,0,0,1.78,6.43q1.78,2.36,5.53,2.36a6.44,6.44,0,0,0,3.2-.74,6.54,6.54,0,0,0,2.2-2,9,9,0,0,0,1.29-2.91,14,14,0,0,0,.42-3.46Q800.12,312.71,798.18,310.58Z"/><path class="cls-2" d="M818,293.64a3.28,3.28,0,1,1-1,2.33A3.17,3.17,0,0,1,818,293.64Zm-.16,19.56q-.1-3.2-.42-6a13.23,13.23,0,0,0,5.82,0q-.32,2.78-.42,6t-.1,6.11V326q0,2.91.1,6.11t.42,5.79q-1.49-.13-2.91-.13t-2.91.13q.32-2.59.42-5.79T818,326v-6.72Q818,316.4,817.87,313.2Z"/><path class="cls-2" d="M841.82,307.35a16.57,16.57,0,0,1,5-.78,12.92,12.92,0,0,1,4.27.68,9.51,9.51,0,0,1,3.32,1.94,9,9,0,0,1,2.16,3,9.58,9.58,0,0,1,.79,3.91q0,3.69-.13,7.34t-.13,7.73c0,.52,0,1.07,0,1.65a4.85,4.85,0,0,0,.29,1.55,3,3,0,0,0,.74,1.13,2.07,2.07,0,0,0,1.45.45c.22,0,.44,0,.68,0a1.59,1.59,0,0,0,.68-.22v1.42a7.45,7.45,0,0,1-1.78.52,13.09,13.09,0,0,1-2.36.2,4.46,4.46,0,0,1-3.21-1.07,4.36,4.36,0,0,1-1.31-2.75,17.39,17.39,0,0,1-4.58,3.43,12.57,12.57,0,0,1-5.54,1.1,11.19,11.19,0,0,1-3.16-.45,7.23,7.23,0,0,1-2.74-1.49,8.11,8.11,0,0,1-1.93-2.49,7.26,7.26,0,0,1-.74-3.33,7.6,7.6,0,0,1,2.41-6,13.13,13.13,0,0,1,6.67-2.84q3.48-.58,5.45-1a13.73,13.73,0,0,0,2.9-.87,2,2,0,0,0,1.13-1.07,5.33,5.33,0,0,0,.19-1.58,12.27,12.27,0,0,0-.39-3.11,7.2,7.2,0,0,0-1.23-2.59,6.2,6.2,0,0,0-2.2-1.78,7.33,7.33,0,0,0-3.3-.68,10.25,10.25,0,0,0-4.82,1.16,7.64,7.64,0,0,0-3.33,3.23h-.71v-3.36A18.39,18.39,0,0,1,841.82,307.35Zm8.06,15.13q-1.45.26-2.93.55a27.59,27.59,0,0,0-2.93.74,9.46,9.46,0,0,0-2.57,1.23,6,6,0,0,0-1.8,1.94,6.91,6.91,0,0,0,1.06,7.56,5.66,5.66,0,0,0,3.86,1.55,7.88,7.88,0,0,0,4.47-1.36,10.21,10.21,0,0,0,3.12-3.17l.26-9.7A16.23,16.23,0,0,1,849.88,322.47Z"/><path class="cls-2" d="M911.26,331.78a16,16,0,0,1-1.39,2.23,11.31,11.31,0,0,1-2.2,2.23,11.17,11.17,0,0,1-3.13,1.68,12.54,12.54,0,0,1-4.2.64,14.28,14.28,0,0,1-4.82-.84,10.83,10.83,0,0,1-4.2-2.75,14.07,14.07,0,0,1-3-4.91,20.47,20.47,0,0,1-1.13-7.21,19.11,19.11,0,0,1,1.23-7.18,15.57,15.57,0,0,1,3.2-5.07,12.86,12.86,0,0,1,4.46-3,13.33,13.33,0,0,1,5-1q7.18,0,10,6.47h.13V306.7q0-2.45,0-4.95T911.1,297q0-2.26-.06-4.27t-.1-3.55l1.49.22a10.39,10.39,0,0,0,1.42.1,9.72,9.72,0,0,0,1.39-.1l1.52-.22q-.2,2.07-.32,6t-.23,8.63q-.1,4.72-.16,9.7T916,322.6q0,4.46.06,8t.13,7.31a24.86,24.86,0,0,0-2.52-.13,24.14,24.14,0,0,0-2.45.13l.19-6.14Zm-17.55-2.13a12,12,0,0,0,2.07,4,6.67,6.67,0,0,0,2.88,2.1,9.35,9.35,0,0,0,3.17.58,7.41,7.41,0,0,0,4.33-1.26,10.35,10.35,0,0,0,3-3.3,15.42,15.42,0,0,0,1.74-4.62,24.83,24.83,0,0,0,.55-5.17q0-6.21-2.39-9.47a8.2,8.2,0,0,0-7-3.26,7.47,7.47,0,0,0-4,1.07,8.55,8.55,0,0,0-2.84,3,14.74,14.74,0,0,0-1.68,4.46,25.92,25.92,0,0,0-.55,5.46A21.31,21.31,0,0,0,893.71,329.65Z"/><path class="cls-2" d="M928.11,311.09q3.78-4.52,11-4.53a15,15,0,0,1,5.92,1.07,12.35,12.35,0,0,1,4.17,2.84,11.27,11.27,0,0,1,2.49,4.17,15.83,15.83,0,0,1,.81,5.11c0,.43,0,.85,0,1.26s-.05.83-.1,1.26l-6.92-.13q-3.43-.06-6.92-.07-2.14,0-4.24.07l-4.23.13a5.41,5.41,0,0,0-.07,1v.84a14.6,14.6,0,0,0,.74,4.72,10.69,10.69,0,0,0,2.16,3.78,10.37,10.37,0,0,0,3.49,2.52,11.48,11.48,0,0,0,4.78.94,10.39,10.39,0,0,0,2.65-.36,15,15,0,0,0,2.65-1,14.46,14.46,0,0,0,2.42-1.45,12.4,12.4,0,0,0,2-1.81l.32.19-.39,3.17a17.89,17.89,0,0,1-4.82,2.65,16.6,16.6,0,0,1-6,1.1,18.21,18.21,0,0,1-6.37-1.07,14.1,14.1,0,0,1-5-3.11,13.9,13.9,0,0,1-3.23-4.82,15.77,15.77,0,0,1-1.13-6Q924.32,315.62,928.11,311.09Zm7.11-1.36a9.44,9.44,0,0,0-2.72,2.75,13.11,13.11,0,0,0-1.62,3.62,19.32,19.32,0,0,0-.68,3.72l4.17.13q2.16.06,4.24.07c1.42,0,2.87,0,4.33-.07l4.27-.13a25,25,0,0,0-.29-3.69,11.48,11.48,0,0,0-1.16-3.62,7.71,7.71,0,0,0-2.42-2.78,6.9,6.9,0,0,0-4.07-1.1A7.12,7.12,0,0,0,935.22,309.74Z"/><path class="cls-2" d="M982.25,293.64a3.28,3.28,0,1,1-1,2.33A3.17,3.17,0,0,1,982.25,293.64Zm-.16,19.56q-.1-3.2-.42-6a13.23,13.23,0,0,0,5.82,0q-.32,2.78-.42,6t-.1,6.11V326q0,2.91.1,6.11t.42,5.79q-1.49-.13-2.91-.13t-2.91.13q.32-2.59.42-5.79t.1-6.11v-6.72Q982.19,316.4,982.09,313.2Z"/><path class="cls-2" d="M1019.3,312.42a6.12,6.12,0,0,0-5.17-2.49q-4.53,0-6.63,2.78t-2.1,7.82V326q0,2.91.1,6.11t.42,5.79q-1.49-.13-2.91-.13c-.95,0-1.92,0-2.91.13q.32-2.59.42-5.79t.1-6.11v-6.72q0-2.91-.1-6.11t-.42-6a17.31,17.31,0,0,0,2.91.32,7.6,7.6,0,0,0,1.13-.1l1.45-.23q-.2,2.59-.19,5.17h.13a13.54,13.54,0,0,1,4.34-4.3,11.52,11.52,0,0,1,6-1.52,13.58,13.58,0,0,1,3.66.52,8.81,8.81,0,0,1,3.34,1.78,9.19,9.19,0,0,1,2.43,3.43,14,14,0,0,1,.94,5.53q0,2.78-.13,5.72t-.13,6.24V334q0,1,0,2c0,.67.05,1.3.1,1.91a27.46,27.46,0,0,0-2.75-.13,26.71,26.71,0,0,0-2.68.13q.13-3.36.29-6.92t.16-7.31v-3.94Q1021.18,314.91,1019.3,312.42Z"/><path class="cls-2" d="M1047.81,293.57a5,5,0,0,0-2.42.55,5,5,0,0,0-1.65,1.42,5.69,5.69,0,0,0-.94,2,10,10,0,0,0-.29,2.46,33.11,33.11,0,0,0,.24,3.36q.25,2.2.6,4.2,1.68,0,3.33,0c1.1,0,2.21,0,3.33,0a6.43,6.43,0,0,0-.1.64,6.18,6.18,0,0,0,0,.65,6.09,6.09,0,0,0,0,.64,6.25,6.25,0,0,0,.1.65l-3.33-.13q-1.65-.06-3.33-.07,0,7,0,14t.22,14a8,8,0,0,0-1.44-.13h-1.38c-.91,0-1.88,0-2.88.13q.45-7,.52-13.94t.06-14.06q-1.16,0-2.33.07l-2.33.13c0-.22.07-.43.1-.65s0-.43,0-.64,0-.43,0-.65-.05-.43-.1-.64q1.16,0,2.36,0t2.3,0a23.57,23.57,0,0,1,.39-4.07,28,28,0,0,1,1.13-4.33,27.23,27.23,0,0,1,1.78-4,13.82,13.82,0,0,1,2.33-3.2,11.51,11.51,0,0,1,2.94-2.07,8,8,0,0,1,3.65-.9,4.05,4.05,0,0,1,1.3.19q-.07,1.3-.16,2.59t-.1,2.59l-.39.2A6.56,6.56,0,0,0,1047.81,293.57Z"/><path class="cls-2" d="M1056,315.2a13.84,13.84,0,0,1,3.65-5,14.4,14.4,0,0,1,5.07-2.78,18.41,18.41,0,0,1,11.22,0,14.49,14.49,0,0,1,5,2.78,13.87,13.87,0,0,1,3.65,5,20.77,20.77,0,0,1,0,14.94,13.86,13.86,0,0,1-3.65,5,13.32,13.32,0,0,1-5,2.68,20.66,20.66,0,0,1-11.22,0,13.26,13.26,0,0,1-5.07-2.68,13.82,13.82,0,0,1-3.65-5,20.73,20.73,0,0,1,0-14.94Zm4.78,12.71a14,14,0,0,0,1.65,4.49,8.85,8.85,0,0,0,3.1,3.14,10.43,10.43,0,0,0,9.57,0,8.83,8.83,0,0,0,3.11-3.14,14,14,0,0,0,1.65-4.49,28.46,28.46,0,0,0,0-10.47,14,14,0,0,0-1.65-4.49,8.81,8.81,0,0,0-3.11-3.14,10.43,10.43,0,0,0-9.57,0,8.82,8.82,0,0,0-3.1,3.14,14,14,0,0,0-1.65,4.49,28.46,28.46,0,0,0,0,10.47Z"/><path class="cls-2" d="M1108.36,311.81a5.81,5.81,0,0,0-1.91-.32,5.47,5.47,0,0,0-2.78.71,6.47,6.47,0,0,0-2.07,1.91,9.09,9.09,0,0,0-1.29,2.84,13.28,13.28,0,0,0-.45,3.52v7.11q0,4.33,0,6.63a31.27,31.27,0,0,0,.23,3.72,25.47,25.47,0,0,0-2.59-.13,26.68,26.68,0,0,0-2.71.13q.19-2.2.22-6t0-9.28V320.6q0-2.52,0-5.82t-.22-7.57l1.36.23a9.46,9.46,0,0,0,1.36.1,8.61,8.61,0,0,0,1.23-.1l1.36-.23q-.26,2.33-.29,3.68c0,.91,0,1.77,0,2.59l.13.07q3.81-7,8.53-7a6.76,6.76,0,0,1,1,.07,5.2,5.2,0,0,1,1.07.32,7.25,7.25,0,0,0-.39,2.36q-.06,1.59-.07,2.88l-.45.32A2.9,2.9,0,0,0,1108.36,311.81Z"/><path class="cls-2" d="M1118,313.2q-.1-3.2-.42-6a17.37,17.37,0,0,0,2.91.32,7.56,7.56,0,0,0,1.13-.1l1.45-.23q-.19,2.59-.19,5.17h.13q3.41-5.82,9.6-5.82a10.48,10.48,0,0,1,3.16.49,10.88,10.88,0,0,1,2.8,1.33,8.84,8.84,0,0,1,2.16,2A6.94,6.94,0,0,1,1142,313h.13a11.37,11.37,0,0,1,4.24-4.75,11.62,11.62,0,0,1,6.19-1.65,12.94,12.94,0,0,1,4,.58,8,8,0,0,1,5.22,5,13,13,0,0,1,.74,4.65c0,.73,0,1.53-.06,2.39s-.09,1.86-.13,3-.09,2.44-.13,3.88-.06,3.11-.06,5q0,1.75,0,3.36c0,1.08.07,2.24.16,3.49a7.8,7.8,0,0,0-1.42-.13H1158a7.75,7.75,0,0,0-1.42.13q.2-1.62.42-6.53t.23-13.71a12.44,12.44,0,0,0-.36-3,6.85,6.85,0,0,0-1.14-2.46,5.45,5.45,0,0,0-2.08-1.65,7.58,7.58,0,0,0-3.24-.61,8,8,0,0,0-4,.9A7.84,7.84,0,0,0,1144,313a6.74,6.74,0,0,0-.81,1.42,8.63,8.63,0,0,0-.45,2.16q-.16,1.46-.23,4.07t-.06,7.21c0,1.86,0,3.55.1,5.08s.14,3.2.23,5q-1.47-.13-2.81-.13t-2.81.13q.28-3.56.4-7.24t.11-7.24q0-3,0-4.75a26.92,26.92,0,0,0-.16-2.71,8.1,8.1,0,0,0-.36-1.65,12.28,12.28,0,0,0-.61-1.42,5.92,5.92,0,0,0-2.22-2.1,6.16,6.16,0,0,0-3.12-.87q-4.25,0-6.24,2.78t-2,7.82V326q0,2.91.1,6.11t.42,5.79q-1.49-.13-2.91-.13t-2.91.13q.32-2.59.42-5.79t.1-6.11v-6.72Q1118.09,316.4,1118,313.2Z"/><path class="cls-2" d="M1179.39,307.35a16.55,16.55,0,0,1,5-.78,12.91,12.91,0,0,1,4.27.68,9.46,9.46,0,0,1,3.32,1.94,9,9,0,0,1,2.16,3,9.49,9.49,0,0,1,.79,3.91q0,3.69-.13,7.34t-.13,7.73c0,.52,0,1.07,0,1.65a4.93,4.93,0,0,0,.29,1.55,2.92,2.92,0,0,0,.74,1.13,2.07,2.07,0,0,0,1.45.45c.22,0,.44,0,.68,0a1.59,1.59,0,0,0,.68-.22v1.42a7.49,7.49,0,0,1-1.78.52,13.1,13.1,0,0,1-2.36.2,4.46,4.46,0,0,1-3.22-1.07,4.36,4.36,0,0,1-1.31-2.75,17.29,17.29,0,0,1-4.57,3.43,12.55,12.55,0,0,1-5.54,1.1,11.23,11.23,0,0,1-3.16-.45,7.27,7.27,0,0,1-2.74-1.49,8.19,8.19,0,0,1-1.93-2.49,7.23,7.23,0,0,1-.74-3.33,7.61,7.61,0,0,1,2.41-6,13.14,13.14,0,0,1,6.67-2.84q3.48-.58,5.44-1a13.73,13.73,0,0,0,2.9-.87,2,2,0,0,0,1.13-1.07,5.52,5.52,0,0,0,.19-1.58,12.14,12.14,0,0,0-.39-3.11,7.1,7.1,0,0,0-1.23-2.59,6.14,6.14,0,0,0-2.2-1.78,7.3,7.3,0,0,0-3.3-.68,10.28,10.28,0,0,0-4.82,1.16,7.68,7.68,0,0,0-3.33,3.23H1174v-3.36A18.4,18.4,0,0,1,1179.39,307.35Zm8.06,15.13c-1,.17-1.94.36-2.93.55a27.59,27.59,0,0,0-2.93.74A9.46,9.46,0,0,0,1179,325a6,6,0,0,0-1.8,1.94,6.91,6.91,0,0,0,1.06,7.56,5.64,5.64,0,0,0,3.86,1.55,7.88,7.88,0,0,0,4.47-1.36,10.17,10.17,0,0,0,3.12-3.17l.26-9.7A16.39,16.39,0,0,1,1187.45,322.47Z"/><path class="cls-2" d="M1217,349.47a15,15,0,0,0,2.72.22,5.06,5.06,0,0,0,2.74-.71,2.24,2.24,0,0,0,1.13-2,2.15,2.15,0,0,0-1-2,4.45,4.45,0,0,0-2.33-.58,5.54,5.54,0,0,0-2.78.45l-.45-.45,2.26-5.95a19.83,19.83,0,0,1-5.14-1.1,12.22,12.22,0,0,1-4.53-2.85,14.77,14.77,0,0,1-3.2-4.85,17.93,17.93,0,0,1-1.23-7,17,17,0,0,1,1.42-7.24,14.76,14.76,0,0,1,3.72-5,15,15,0,0,1,5.27-2.91,20.17,20.17,0,0,1,6.07-.94,21.46,21.46,0,0,1,6.37.88,11.08,11.08,0,0,1,4,2,19.24,19.24,0,0,0-.81,2,21.48,21.48,0,0,0-.61,2.23h-.52a9,9,0,0,0-1.23-1.71,10.21,10.21,0,0,0-1.85-1.62,10.54,10.54,0,0,0-2.36-1.23,8.08,8.08,0,0,0-2.84-.48,10.91,10.91,0,0,0-5,1.07,9.22,9.22,0,0,0-3.43,2.95,12.74,12.74,0,0,0-1.94,4.44,23.71,23.71,0,0,0-.61,5.54q0,6.67,2.85,10.08t8.34,3.4a10.25,10.25,0,0,0,2.65-.36,14.73,14.73,0,0,0,2.65-1,14.34,14.34,0,0,0,2.42-1.47,12.13,12.13,0,0,0,2-1.84l.32.19a19.5,19.5,0,0,0-.39,3.17,16.3,16.3,0,0,1-4.46,2.52,17.32,17.32,0,0,1-5.56,1.16l-1.36,3.82c.26-.09.53-.16.81-.23a5,5,0,0,1,1.06-.1,5.75,5.75,0,0,1,3.95,1.26,4.25,4.25,0,0,1,1.42,3.33,4.6,4.6,0,0,1-.61,2.39,5.13,5.13,0,0,1-1.68,1.71,8.41,8.41,0,0,1-2.45,1,11.93,11.93,0,0,1-2.94.36,13.18,13.18,0,0,1-3.43-.39c-.95-.26-1.73-.5-2.33-.71l.9-2.07A8.79,8.79,0,0,0,1217,349.47Z"/><path class="cls-2" d="M1247.28,307.35a16.55,16.55,0,0,1,5-.78,12.91,12.91,0,0,1,4.27.68,9.46,9.46,0,0,1,3.32,1.94,9,9,0,0,1,2.16,3,9.49,9.49,0,0,1,.79,3.91q0,3.69-.13,7.34t-.13,7.73c0,.52,0,1.07,0,1.65a4.93,4.93,0,0,0,.29,1.55,2.92,2.92,0,0,0,.74,1.13,2.07,2.07,0,0,0,1.45.45c.22,0,.44,0,.68,0a1.59,1.59,0,0,0,.68-.22v1.42a7.49,7.49,0,0,1-1.78.52,13.1,13.1,0,0,1-2.36.2,4.46,4.46,0,0,1-3.22-1.07,4.36,4.36,0,0,1-1.31-2.75,17.29,17.29,0,0,1-4.57,3.43,12.55,12.55,0,0,1-5.54,1.1,11.23,11.23,0,0,1-3.16-.45,7.27,7.27,0,0,1-2.74-1.49,8.19,8.19,0,0,1-1.93-2.49,7.23,7.23,0,0,1-.74-3.33,7.61,7.61,0,0,1,2.41-6,13.14,13.14,0,0,1,6.67-2.84q3.48-.58,5.44-1a13.73,13.73,0,0,0,2.9-.87,2,2,0,0,0,1.13-1.07,5.52,5.52,0,0,0,.19-1.58,12.14,12.14,0,0,0-.39-3.11,7.1,7.1,0,0,0-1.23-2.59,6.14,6.14,0,0,0-2.2-1.78,7.3,7.3,0,0,0-3.3-.68,10.28,10.28,0,0,0-4.82,1.16,7.68,7.68,0,0,0-3.33,3.23h-.71v-3.36A18.4,18.4,0,0,1,1247.28,307.35Zm-4.69-9.63a7.79,7.79,0,0,1,1.32-2.13,6.82,6.82,0,0,1,2-1.59,5.72,5.72,0,0,1,2.72-.61,5.91,5.91,0,0,1,2,.32c.6.22,1.51.6,2.72,1.16a26.91,26.91,0,0,0,2.62,1.2,4.78,4.78,0,0,0,1.65.29,3.12,3.12,0,0,0,2.39-1,5.7,5.7,0,0,0,1.3-2.26h1.88a14.35,14.35,0,0,1-.52,1.94,8.77,8.77,0,0,1-1.2,2.3,6.92,6.92,0,0,1-2.1,1.91,6.18,6.18,0,0,1-3.23.78,7.48,7.48,0,0,1-2-.32,12.52,12.52,0,0,1-2.62-1.16,17.85,17.85,0,0,0-2.55-1.2,5.18,5.18,0,0,0-1.65-.29,3.07,3.07,0,0,0-2.17.65,6,6,0,0,0-1.26,2.33h-1.94A10.6,10.6,0,0,1,1242.59,297.71Zm12.75,24.76c-1,.17-1.94.36-2.93.55a27.59,27.59,0,0,0-2.93.74,9.46,9.46,0,0,0-2.57,1.23,6,6,0,0,0-1.8,1.94,6.91,6.91,0,0,0,1.06,7.56,5.64,5.64,0,0,0,3.86,1.55,7.88,7.88,0,0,0,4.47-1.36,10.17,10.17,0,0,0,3.12-3.17l.26-9.7A16.39,16.39,0,0,1,1255.34,322.47Z"/><path class="cls-2" d="M1274,315.2a13.84,13.84,0,0,1,3.65-5,14.4,14.4,0,0,1,5.07-2.78,18.41,18.41,0,0,1,11.22,0,14.52,14.52,0,0,1,5,2.78,14,14,0,0,1,3.65,5,20.81,20.81,0,0,1,0,14.94,14,14,0,0,1-3.65,5,13.35,13.35,0,0,1-5,2.68,20.66,20.66,0,0,1-11.22,0,13.26,13.26,0,0,1-5.07-2.68,13.82,13.82,0,0,1-3.65-5,20.73,20.73,0,0,1,0-14.94Zm4.78,12.71a13.91,13.91,0,0,0,1.65,4.49,8.89,8.89,0,0,0,3.1,3.14,10.43,10.43,0,0,0,9.57,0,8.8,8.8,0,0,0,3.1-3.14,13.91,13.91,0,0,0,1.65-4.49,28.63,28.63,0,0,0,0-10.47,13.91,13.91,0,0,0-1.65-4.49,8.78,8.78,0,0,0-3.1-3.14,10.43,10.43,0,0,0-9.57,0,8.87,8.87,0,0,0-3.1,3.14,13.91,13.91,0,0,0-1.65,4.49,28.63,28.63,0,0,0,0,10.47Z"/><path class="cls-3" d="M113.43,206.34c-1.16.05-2.33.09-3.5.09a74.92,74.92,0,1,1,0-149.84c1.17,0,2.34,0,3.5.09v-35c-1.17,0-2.33-.09-3.5-.09a109.93,109.93,0,0,0,0,219.85c1.17,0,2.34-.05,3.5-.09Z"/><ellipse class="cls-4" cx="1148.45" cy="32.37" rx="38.32" ry="32.27" transform="translate(4.65 140.53) rotate(-7.02)"/><ellipse class="cls-5" cx="1074.23" cy="215.82" rx="11.2" ry="9.43" transform="translate(-18.32 132.84) rotate(-7.02)"/><polygon class="cls-6" points="1173.49 69.19 1128.68 78.99 1159.49 228.83 1177.69 219.03 1173.49 69.19"/><path class="cls-7" d="M208,60.79c-39.83,0-72.12,36.05-72.12,80.52s32.29,80.52,72.12,80.52,72.12-36.05,72.12-80.52S247.78,60.79,208,60.79Zm0,154c-29,0-52.51-32.92-52.51-73.52S178.95,67.79,208,67.79s52.51,32.92,52.51,73.52S237,214.83,208,214.83ZM428.51,65h9.8V221.83h-5.89L333.28,86V219h-9.8V65h18.2l86.82,119Zm560.14,0h63v8.4h-63V221.83h-18.2V73.39h-63V65h81.22Zm361.29,0v8.4h-63V221.83h-18.2V73.39h-63V65h144.24ZM812.2,214.83h84v7H794V65h18.2ZM726.78,65h9.8V185.42c-9.8,26.61-34.77,37.81-58.81,37.81-23.59,0-54.79-10.79-57.28-35h-.13V65h18.2V185.42c1.4,18.2,24.71,29.41,43.41,29.41,17.65,0,33-9.4,44.89-26.63l-.08,0ZM582.23,179.72c-2.4,18.66-19.15,33-37.49,39-25.25,8.21-44-.34-61.13-17.64a19,19,0,0,1-3.56-5.87c-.79-1.8.89-2.86,2.86-2.8,1.62.05,8,5.35,10,7.05C509.76,214,525.13,212,544.74,205c9.9-3.53,20-13.3,20.6-25.24.58-11.27-4.94-18.15-14.43-22.12-14.58-6.1-29.46-11.47-44-17.72-15.9-6.84-26.35-22.7-25.59-37.6.88-17.22,11.94-30.48,28.34-37.74,24.58-10.88,56.59,2.9,62.77,23.25v0a3.63,3.63,0,0,1-4.72,4.38c-1.91-.67-10.35-16.35-30-20.28-14-2.8-27,2.4-33.79,9.86-12.25,13.45-3.48,32.74,16.86,39.07a309.59,309.59,0,0,1,35.46,13.25C573.86,142.11,584.55,161.7,582.23,179.72Z"/></g></g></g></g></svg>